<svg width="48" height="48" viewBox="0 0 48 48" fill="none" xmlns="http://www.w3.org/2000/svg">
<path fill-rule="evenodd" clip-rule="evenodd" d="M32.6382 36.1482C32.6382 37.5599 31.4924 38.7057 30.0807 38.7057H18.5719C17.1602 38.7057 16.0144 37.5599 16.0144 36.1482V11.8519C16.0144 10.4389 17.1602 9.29443 18.5719 9.29443H30.0807C31.4924 9.29443 32.6382 10.4389 32.6382 11.8519V36.1482Z" stroke="#FFE900" stroke-width="1.75" stroke-linecap="round" stroke-linejoin="round"/>
<path d="M32.6382 33.5907H16.0144" stroke="#FFE900" stroke-width="1.75" stroke-linecap="round" stroke-linejoin="round"/>
<path d="M32.6382 14.4094H16.0144" stroke="#FFE900" stroke-width="1.75" stroke-linecap="round" stroke-linejoin="round"/>
<path d="M21.1294 11.8519H27.5231" stroke="#FFE900" stroke-width="1.75" stroke-linecap="round" stroke-linejoin="round"/>
<path fill-rule="evenodd" clip-rule="evenodd" d="M24.3263 36.7875C23.9733 36.7875 23.6869 36.4998 23.6869 36.1482C23.6869 35.7939 23.9733 35.5088 24.3263 35.5088C24.6792 35.5088 24.9656 35.7939 24.9656 36.1482C24.9656 36.4998 24.6792 36.7875 24.3263 36.7875Z" stroke="#FFE900" stroke-width="1.75" stroke-linejoin="round"/>
<path d="M19.8506 18.7257H28.8019" stroke="#FFE900" stroke-width="1.75" stroke-linecap="round" stroke-linejoin="round"/>
<path d="M19.8506 22.1357H28.8019" stroke="#FFE900" stroke-width="1.75" stroke-linecap="round" stroke-linejoin="round"/>
<path d="M19.8506 25.5457H28.8019" stroke="#FFE900" stroke-width="1.75" stroke-linecap="round" stroke-linejoin="round"/>
<path d="M19.8506 28.9557H24.9656" stroke="#FFE900" stroke-width="1.75" stroke-linecap="round" stroke-linejoin="round"/>
</svg>
