<svg width="48" height="48" viewBox="0 0 48 48" fill="none" xmlns="http://www.w3.org/2000/svg">
<path d="M29.7601 16.32C24.6401 16.32 24.6401 14.4 24.0001 13.76C23.3601 14.4 23.3601 16.32 18.2401 16.32" stroke="#FFE900" stroke-width="1.75" stroke-linecap="round" stroke-linejoin="round"/>
<path d="M31.68 18.24L32.32 15.68C32.32 15.68 32.96 9.28003 24 9.28003C15.04 9.28003 15.68 15.68 15.68 15.68L16.32 19.52C15.04 20.16 15.68 23.36 17.6 23.36C17.6 27.2 22.08 29.76 24 29.76C24.7949 29.76 26.1607 29.312 27.3728 28.448" stroke="#FFE900" stroke-width="1.75" stroke-linecap="round" stroke-linejoin="round"/>
<path d="M20.6733 28.448L12.6029 30.7264C10.6048 31.4752 9.28003 33.385 9.28003 35.52V38.72H38.72V35.52C38.72 33.385 37.3965 31.4752 35.3972 30.7264L27.3715 28.448" stroke="#FFE900" stroke-width="1.75" stroke-linecap="round" stroke-linejoin="round"/>
<path d="M33.6 22.0801V23.3601C33.3594 24.5569 32.2599 25.9201 31.04 25.9201H25.92" stroke="#FFE900" stroke-width="1.75" stroke-linecap="round" stroke-linejoin="round"/>
<path fill-rule="evenodd" clip-rule="evenodd" d="M34.8801 20.16C34.8801 21.2198 34.0199 22.08 32.9601 22.08H31.6801V18.24H32.9601C34.0212 18.24 34.8801 19.1002 34.8801 20.16Z" stroke="#FFE900" stroke-width="1.75" stroke-linecap="round" stroke-linejoin="round"/>
<path d="M25.92 25.92H23.36" stroke="#FFE900" stroke-width="1.75" stroke-linecap="round" stroke-linejoin="round"/>
<path d="M20.16 20.16C20.16 19.4521 20.7322 19.52 21.44 19.52C22.1479 19.52 22.72 19.4521 22.72 20.16" stroke="#FFE900" stroke-width="1.75" stroke-linecap="round" stroke-linejoin="round"/>
<path d="M25.28 20.16C25.28 19.4521 25.8522 19.52 26.56 19.52C27.2679 19.52 27.84 19.4521 27.84 20.16" stroke="#FFE900" stroke-width="1.75" stroke-linecap="round" stroke-linejoin="round"/>
</svg>
