<svg width="120" height="120" viewBox="0 0 120 120" fill="none" xmlns="http://www.w3.org/2000/svg">
<g clip-path="url(#clip0_4889_32985)">
<rect width="120" height="120" fill="white"/>
<rect width="120" height="120" fill="white"/>
<path d="M53.3726 65.9629C36.8322 57.1868 16.44 58.2178 7.82541 68.2657C-0.789166 78.3136 5.63601 93.5736 22.1764 102.35C38.7169 111.126 63.5705 121.489 72.1851 111.441C80.7997 101.393 69.913 74.7391 53.3726 65.9629Z" fill="#FFE600"/>
<path fill-rule="evenodd" clip-rule="evenodd" d="M94.7477 59.0207C94.7477 78.8475 78.6903 94.9236 58.8821 94.9236C39.0739 94.9205 23.2156 78.2037 23.2156 58.3769C23.2156 39.0694 38.3617 24.1908 57.4421 23.4226C57.9584 23.4008 58.4747 23.3884 58.9972 23.3884C78.8054 23.3884 94.7477 39.1939 94.7477 59.0207Z" stroke="black" stroke-width="3.5" stroke-linejoin="round"/>
<path d="M57.4422 23.4226C38.7816 43.6382 38.7816 70.0118 57.4422 94.8925" stroke="black" stroke-width="3.5" stroke-linejoin="round"/>
<path d="M60.5522 23.4226C79.2128 43.6382 79.2128 70.0025 60.5522 94.8832" stroke="black" stroke-width="3.5" stroke-linejoin="round"/>
<path d="M29.0813 38.9388H88.5929" stroke="black" stroke-width="3.5" stroke-linejoin="round"/>
<path d="M23.2249 57.5994H94.7476" stroke="black" stroke-width="3.5" stroke-linejoin="round"/>
<path d="M27.834 76.2599H90.3468" stroke="black" stroke-width="3.5" stroke-linejoin="round"/>
</g>
<defs>
<clipPath id="clip0_4889_32985">
<rect width="120" height="120" fill="white"/>
</clipPath>
</defs>
</svg>
