<?xml version="1.0" encoding="utf-8"?>
<svg
width="3000"
height="2000"  viewBox="100 200 3840 2160" style="background-position: center; background-size: initial; shape-rendering:geometricPrecision; text-rendering:geometricPrecision; image-rendering:optimizeQuality; fill-rule:evenodd; clip-rule:evenodd" version="1.1" xmlns="http://www.w3.org/2000/svg">
  <path d="M 3368.276 308.475 C 3360.745 309.971, 3359.403 310.980, 3358.550 315.786 C 3348.710 371.194, 3305.128 420.586, 3248.090 440.971 C 3243.464 442.625, 3237.389 445.555, 3234.590 447.482 C 3229.097 451.265, 3214.464 455.414, 3188.500 460.552 C 3181.350 461.966, 3172.350 463.786, 3168.500 464.596 C 3164.650 465.405, 3154.750 467.392, 3146.500 469.012 C 3114.330 475.328, 3101.029 478.522, 3080 484.985 C 3066.282 489.201, 3061.819 490.840, 3063.793 490.937 C 3064.504 490.971, 3070.579 489.218, 3077.293 487.040 C 3097.912 480.352, 3117.667 475.760, 3170 465.488 C 3215.023 456.650, 3228.667 453.056, 3236.150 448.059 C 3239.353 445.919, 3244.343 443.384, 3247.237 442.424 C 3278.556 432.039, 3310.075 409.878, 3328.812 385.068 C 3334.489 377.551, 3340 369.364, 3340 368.445 C 3340 368.179, 3341.207 366.057, 3342.682 363.730 C 3347.796 355.664, 3356.619 332.454, 3359.951 318.300 C 3361.480 311.808, 3362.397 311.059, 3370.749 309.482 C 3378.717 307.977, 3379.316 308.199, 3378.485 312.345 C 3375.685 326.332, 3367.041 349.454, 3359.906 362.045 C 3357.758 365.837, 3356 369.166, 3356 369.445 C 3356 369.723, 3354.088 372.825, 3351.750 376.338 C 3329.094 410.387, 3299.156 433.949, 3257.500 450.517 C 3250.900 453.142, 3244.150 456.418, 3242.500 457.797 C 3236.484 462.823, 3215.638 468.377, 3170 477.112 C 3037.370 502.496, 3017.859 513.756, 3002.118 574 C 2989.749 621.339, 2991.389 707.560, 3006.512 805 C 3007.835 813.525, 3008.980 824.100, 3009.055 828.500 C 3009.194 836.554, 3012.535 859.099, 3022.468 919 C 3025.432 936.875, 3029.025 959.375, 3030.451 969 C 3035.056 1000.062, 3037.914 1018.968, 3041.940 1045 C 3063.640 1185.315, 3059.486 1269.464, 3029.179 1303.500 C 3017.549 1316.562, 2982.341 1328.911, 2969.328 1324.493 C 2966.909 1323.672, 2962.133 1323.064, 2958.715 1323.142 L 2952.500 1323.284 2959 1323.966 C 2962.575 1324.341, 2967.118 1325.189, 2969.096 1325.851 C 2977.717 1328.734, 3007.611 1320.901, 3020.607 1312.354 C 3048.982 1293.693, 3063.502 1224.757, 3056.068 1144 C 3055.486 1137.675, 3054.761 1129.800, 3054.457 1126.500 C 3053.841 1119.817, 3053.865 1120.024, 3050.976 1097 C 3048.854 1080.086, 3044.445 1049.824, 3040.996 1028.500 C 3039.051 1016.476, 3035.194 991.131, 3034.452 985.500 C 3032.904 973.759, 3030.293 956.684, 3026.424 933 C 3023.953 917.875, 3019.918 893.125, 3017.457 878 C 3014.996 862.875, 3012.762 849.375, 3012.494 848 C 3012.225 846.625, 3011.561 838.975, 3011.018 831 C 3010.475 823.025, 3009.822 815.375, 3009.567 814 C 3007.529 802.992, 3000.583 750.601, 2999.492 738 C 2999.135 733.875, 2998.683 729.375, 2998.488 728 C 2993.811 695.006, 2994.946 618.648, 3000.546 589.500 C 3010.121 539.659, 3025.603 517.526, 3059.500 505.224 C 3072.493 500.508, 3104.028 491.672, 3119 488.552 C 3132.816 485.673, 3151.174 482.030, 3167 479.025 C 3191.062 474.457, 3223.487 467.179, 3232.500 464.323 C 3235.250 463.452, 3239.683 461.190, 3242.352 459.298 C 3245.021 457.405, 3251.310 454.290, 3256.328 452.375 C 3292.442 438.593, 3322.312 417.071, 3345.271 388.288 C 3350.557 381.662, 3362 363.951, 3362 362.397 C 3362 362.032, 3363.517 358.756, 3365.370 355.117 C 3370.184 345.665, 3373.058 337.891, 3380.045 315.429 C 3382.751 306.728, 3381.321 305.883, 3368.276 308.475 M 3027.103 507.820 C 3008.890 520.052, 2997.399 537.315, 2987.976 566.602 C 2986.626 570.797, 2983.301 585.708, 2981.531 595.500 C 2975.733 627.590, 2975.974 693.019, 2982.090 747 C 2984.977 772.484, 2988.767 800.382, 2991.367 815.293 C 2992.115 819.580, 2992.817 827.230, 2992.928 832.293 C 2993.137 841.855, 2994.210 850.139, 2998.523 875.500 C 2999.926 883.750, 3001.319 892.075, 3001.618 894 C 3001.918 895.925, 3005.008 914.825, 3008.486 936 C 3011.964 957.175, 3015.997 982.600, 3017.448 992.500 C 3020.145 1010.895, 3023.558 1033.115, 3026.973 1054.500 C 3028.027 1061.100, 3029.163 1068.525, 3029.498 1071 C 3029.833 1073.475, 3030.509 1078.200, 3031 1081.500 C 3031.491 1084.800, 3032.127 1089.300, 3032.411 1091.500 C 3032.696 1093.700, 3033.395 1099.100, 3033.964 1103.500 C 3042.555 1169.930, 3041.419 1231.914, 3030.976 1266.500 C 3022.947 1293.093, 3017.907 1300.659, 3003.612 1307.583 C 2995.005 1311.752, 2979.331 1315.517, 2974.776 1314.510 C 2972.974 1314.112, 2967.450 1313.669, 2962.500 1313.527 L 2953.500 1313.268 2962 1314.023 C 2966.675 1314.439, 2972.525 1315.084, 2975 1315.457 C 2984.690 1316.916, 3007.588 1308.857, 3015.452 1301.218 C 3028.031 1289.001, 3036.586 1261.263, 3040.503 1220 C 3041.691 1207.486, 3041.771 1161.976, 3040.621 1153 C 3040.375 1151.075, 3039.886 1145.675, 3039.536 1141 C 3038.668 1129.430, 3035.404 1101.505, 3032.931 1084.500 C 3031.812 1076.800, 3030.702 1069.150, 3030.464 1067.500 C 3030.227 1065.850, 3027.581 1048.525, 3024.585 1029 C 3021.588 1009.475, 3018.627 989.900, 3018.004 985.500 C 3016.960 978.124, 3012.107 948.074, 3001.933 886 C 2995.726 848.126, 2995.171 844.200, 2994.508 833.500 C 2994.168 828, 2992.777 815.850, 2991.419 806.500 C 2987.027 776.265, 2983.479 747.694, 2982.418 734 C 2982.140 730.425, 2981.733 726.600, 2981.512 725.500 C 2979.283 714.404, 2978.809 634.155, 2980.854 614 C 2986.133 561.955, 3000.746 528.201, 3025.714 510.384 C 3031.271 506.419, 3032.836 505, 3031.650 505 C 3031.458 505, 3029.412 506.269, 3027.103 507.820" stroke="none" fill="#457471" fill-rule="evenodd"/>
  <path d="M 0 1080 L 0 2160.001 L 1920.25 2159.75 L 3840.5 2159.5 L 3840.75 1079.75 L 3841.001 0 L 1920.5 0 L 0 0 L 0 1080 M 0.498 1080.5 C 0.498 1674.5 0.611 1917.35 0.75 1620.167 C 0.889 1322.984 0.889 836.984 0.75 540.167 C 0.611 243.35 0.498 486.5 0.498 1080.5 M 3368.276 308.475 C 3360.745 309.971 3359.403 310.98 3358.55 315.786 C 3348.71 371.194 3305.128 420.586 3248.09 440.971 C 3243.464 442.625 3237.389 445.555 3234.59 447.482 C 3229.097 451.265 3214.464 455.414 3188.5 460.552 C 3181.35 461.966 3172.35 463.786 3168.5 464.596 C 3164.65 465.405 3154.75 467.392 3146.5 469.012 C 3114.723 475.251 3100.719 478.594 3081.36 484.564 C 3067.218 488.926 3067.114 488.906 3075.5 483.403 C 3088.659 474.77 3101.979 462.839 3113.909 449 C 3118.413 443.775 3124.391 436.933 3127.194 433.795 C 3136.466 423.413 3145.601 403.369 3153.054 377.056 C 3156.529 364.784 3156.512 364.75 3147.48 366.12 C 3138.814 367.435 3138.887 367.353 3135.532 379.5 C 3131.025 395.816 3119.248 425 3117.17 425 C 3116.686 425 3112.677 429.613 3108.261 435.25 C 3071.306 482.429 3038.167 498.446 2943.132 515.063 C 2841.478 532.839 2809.507 554.253 2795.074 614.232 C 2789.622 636.888 2787.335 707.006 2790.939 741 C 2791.959 750.625 2793.048 761.425 2793.359 765 C 2796.407 800.047 2797.495 810.294 2800.097 828.5 C 2803.878 854.946 2809.268 890.867 2812.476 911 C 2813.834 919.525 2816.575 936.85 2818.567 949.5 C 2820.559 962.15 2825.979 995.9 2830.613 1024.5 C 2841.734 1093.141 2848.178 1144.372 2850.487 1182.5 C 2850.82 1188 2851.313 1194.957 2851.583 1197.961 C 2853.766 1222.283 2850.67 1269.326 2846.601 1273.677 C 2845.768 1274.567 2841.949 1275.711 2833.246 1271.339 C 2826.921 1268.162 2815.015 1262.883 2806.746 1258.77 C 2709.518 1210.405 2675.972 1220.817 2657.069 1272.25 C 2655.278 1277.124 2654.694 1277.846 2651.473 1275.663 C 2633.037 1263.167 2580.542 1240.151 2560.877 1235.942 C 2521.771 1227.572 2495.529 1256.3 2492.34 1310.973 C 2492.002 1316.763 2491.328 1322.275 2490.842 1323.222 C 2490.357 1324.17 2489.779 1329.57 2489.558 1335.222 C 2489.337 1340.875 2488.559 1349.55 2487.828 1354.5 C 2486.484 1363.61 2486.015 1491.868 2487.284 1503.5 C 2489.492 1523.75 2490.082 1679.213 2487.955 1680.528 C 2487.54 1680.784 2484.793 1678.37 2481.851 1675.163 C 2350.834 1532.388 2330.456 1518.906 2301.356 1555.748 C 2293.872 1565.224 2281 1596.38 2281 1605.021 C 2281 1608.175 2280.609 1607.838 2265.323 1591.5 C 2205.769 1527.849 2178.649 1523.008 2159.429 1572.595 C 2145.165 1609.395 2138.585 1643.336 2129.012 1729.5 C 2125.193 1763.869 2120.494 1798.839 2119.571 1799.762 C 2119.019 1800.314 2109.168 1785.081 2102.911 1774 C 2100.271 1769.325 2096.334 1763.025 2094.162 1760 C 2089.306 1753.237 2081.413 1739.767 2062.36 1705.725 C 2000.327 1594.892 1976.737 1571.197 1949.862 1592.726 C 1942.844 1598.349 1931 1614.737 1931 1618.826 C 1931 1619.957 1930.575 1621.145 1930.055 1621.466 C 1928.723 1622.289 1922.842 1634.15 1919.501 1642.75 C 1916.002 1651.755 1916.763 1652.005 1908.828 1639.236 C 1882.165 1596.328 1858.683 1576.238 1846.444 1585.865 C 1844.971 1587.024 1843.325 1587.701 1842.787 1587.368 C 1840.32 1585.844 1826.272 1602.684 1820.153 1614.5 C 1814.799 1624.838 1805.055 1648.637 1803.904 1654.187 C 1803.297 1657.109 1802.218 1660.425 1801.504 1661.556 C 1799.955 1664.013 1794.04 1682.766 1787.012 1707.5 C 1784.199 1717.4 1781.66 1726.303 1781.37 1727.285 C 1780.294 1730.931 1770.597 1711.335 1761.435 1687 C 1759.675 1682.325 1754.309 1668.6 1749.51 1656.5 C 1744.71 1644.4 1734.126 1616.5 1725.988 1594.5 C 1680.582 1471.748 1666.274 1446.399 1643.427 1448.229 C 1630.322 1449.278 1607.277 1472.615 1595.5 1496.764 C 1592.676 1502.554 1591 1504.452 1591 1501.86 C 1591 1500.18 1580.59 1479.852 1576.169 1472.898 C 1564.28 1454.2 1549.04 1446.419 1538.936 1453.889 C 1537.366 1455.05 1535.5 1456.001 1534.79 1456.002 C 1533.323 1456.003 1522 1467.152 1522 1468.596 C 1522 1469.115 1519.988 1472.229 1517.529 1475.517 C 1510.874 1484.414 1501.612 1501.101 1494.486 1517.032 C 1491.007 1524.81 1487.948 1531.385 1487.689 1531.644 C 1487.257 1532.076 1480.967 1512.884 1474.694 1492 C 1470.748 1478.861 1464.758 1456.174 1457.136 1425.5 C 1449.553 1394.986 1448.032 1388.492 1438.519 1346 C 1435.01 1330.325 1430.727 1311.875 1429.002 1305 C 1427.276 1298.125 1425.462 1290.475 1424.97 1288 C 1424.477 1285.525 1422.752 1278.775 1421.136 1273 C 1419.519 1267.225 1416.603 1256.638 1414.655 1249.472 C 1399.273 1192.888 1382.266 1178.194 1358.078 1200.588 C 1354.735 1203.683 1352 1206.842 1352 1207.608 C 1352 1208.373 1351.539 1209 1350.975 1209 C 1350.412 1209 1349.552 1210.049 1349.064 1211.332 C 1348.576 1212.614 1346.094 1216.884 1343.548 1220.82 C 1341.002 1224.756 1337.125 1231.919 1334.933 1236.738 C 1332.741 1241.557 1330.152 1247.237 1329.18 1249.36 L 1327.413 1253.22 L 1322.611 1239.86 C 1310.158 1205.214 1300.741 1195.395 1286.268 1201.965 C 1282.153 1203.833 1272 1212.457 1272 1214.084 C 1272 1214.529 1269.863 1217.741 1267.25 1221.22 C 1264.638 1224.699 1258.453 1235.852 1253.507 1246.005 L 1244.513 1264.466 L 1243.695 1259.483 C 1243.244 1256.742 1241.564 1247.975 1239.961 1240 C 1235.523 1217.92 1232.381 1200.632 1228.51 1177 C 1226.573 1165.175 1224.535 1152.8 1223.981 1149.5 C 1223.427 1146.2 1220.04 1124.15 1216.454 1100.5 C 1212.868 1076.85 1207.899 1045.35 1205.413 1030.5 C 1202.927 1015.65 1199.576 995.625 1197.965 986 C 1190.647 942.255 1181.332 922 1168.534 922 C 1155.541 922 1146.259 933.133 1136.015 961 C 1127.14 985.144 1121.199 999.205 1120.659 997.344 C 1120.365 996.33 1118.961 990.55 1117.54 984.5 C 1102.773 921.622 1079.229 924.694 1056.22 992.5 C 1050.134 1010.435 1044.998 1026.873 1044.921 1028.667 C 1044.722 1033.293 1042.81 1023.735 1039.086 999.5 C 1035.193 974.158 1033.758 964.195 1026.56 912.5 C 1003.958 750.173 990.811 707.543 970.625 731.125 C 963.231 739.764 952.265 767.718 947.138 791 C 940.511 821.094 940.194 821.564 937.134 805.795 C 926.971 753.426 912.572 736.094 899.969 761.061 C 898.361 764.247 896.585 767.139 896.022 767.486 C 895.46 767.834 895 769.009 895 770.099 C 895 771.188 894.151 773.749 893.113 775.79 C 888.071 785.704 876.81 827.152 871.39 855.746 C 867.411 876.741 869.313 884.449 850.566 771.376 C 839.148 702.506 833.578 672.021 829.575 656.5 C 816.369 605.285 802.673 603.594 790.604 651.688 C 786.532 667.915 778.185 714.503 777.917 722.5 C 777.861 724.15 776.127 717.175 774.062 707 C 753.334 604.861 734.271 624.902 717.555 766.406 C 715.611 782.854 713.85 796.484 713.639 796.694 C 713.429 796.904 711.583 788.172 709.536 777.288 C 694.1 695.198 680.489 630.596 675.449 615.5 C 663.966 581.11 653.433 586.022 647.473 628.549 C 646.628 634.572 645.501 641.124 644.968 643.109 C 644.435 645.093 644.003 647.793 644.008 649.109 C 644.022 652.643 643.32 661.269 642.146 672 C 641.575 677.225 640.541 689.48 639.848 699.234 L 638.59 716.968 L 633.395 693.734 C 618.845 628.653 611.455 611.105 602.681 620.8 C 599.405 624.42 593.519 648.183 592.544 661.726 C 592.315 664.902 591.206 676.5 590.079 687.5 C 588.142 706.397 585.938 742.852 584.365 782 L 583.662 799.5 L 582.356 793.5 C 550.584 647.585 539.262 618.404 531.986 663.688 C 531.384 667.435 530.467 672.525 529.949 675 C 528.653 681.196 526.001 723.769 525.996 738.462 C 525.994 745.083 525.697 756.953 525.337 764.841 L 524.681 779.182 L 519.452 755.841 C 500.913 673.081 491.529 653.822 484.061 683.211 C 480.355 697.797 477.558 768.906 478.483 825 L 478.97 854.5 L 474.024 830.5 C 461.276 768.643 453.151 746.884 446.012 755.486 C 444.28 757.572 446.582 762.592 448.53 760.975 C 453.143 757.147 459.938 780.308 471.86 840.5 L 479.782 880.5 L 482.05 937.5 C 485.536 1025.098 485.245 1052 480.813 1052 C 471.31 1052 460.509 1012.358 437.489 893 C 419.472 799.585 412.457 775 403.815 775 C 401.142 775 400.841 775.277 401.37 777.25 C 401.701 778.487 401.979 779.795 401.986 780.156 C 401.994 780.517 402.847 780.591 403.883 780.32 C 410.095 778.696 418.109 808.923 436.014 901.5 C 460.311 1027.132 472.696 1066.748 484.109 1055.336 C 488.628 1050.817 489.029 1018.789 485.523 942.5 C 484.714 924.9 484.08 909.15 484.114 907.5 C 484.148 905.85 487.264 919.575 491.039 938 C 508.751 1024.448 520.902 1055.971 531.13 1042 C 535.421 1036.138 535.661 1000.316 532.024 908.5 C 530.925 880.738 529.853 821.102 530.478 822.5 C 530.725 823.05 533.672 835.875 537.027 851 C 557.721 944.277 567.985 975.361 577.129 972.459 C 582.231 970.84 582.976 963.965 584.982 900 C 585.595 880.475 586.363 857.975 586.69 850 L 587.284 835.5 L 589.61 846 C 621.246 988.829 633.187 996.643 636.981 877 C 639.311 803.546 641.191 753.857 641.624 754.291 C 641.798 754.465 645.116 771.233 648.997 791.554 C 686.14 986.026 699.394 1003.116 710.998 871.5 C 715.054 825.488 714.53 826.99 719.025 848.5 C 746.582 980.375 756.689 974.55 771.947 818 C 773.582 801.225 775.705 780.975 776.665 773 L 778.41 758.5 L 780.744 770.5 C 782.029 777.1 786.457 802.525 790.585 827 C 794.714 851.475 800.328 883.792 803.062 898.816 C 807.332 922.283 809.822 934.241 817.466 968 C 833.869 1040.445 845.472 1029.565 863.589 924.75 C 866.784 906.263 869 898.055 869 904.704 C 869 914.653 885.524 978.156 890.862 988.723 C 898.221 1003.288 907.957 1000.584 911.473 983 C 911.858 981.075 914.139 971.4 916.541 961.5 C 922.395 937.381 927.212 914.009 936.104 866.577 L 939.464 848.654 L 941.641 862.077 C 949.38 909.803 952.283 928.333 955.493 950.5 C 960.408 984.441 972.331 1055.755 976.494 1076.111 C 980.783 1097.078 987.859 1124.318 990.036 1128.236 C 990.566 1129.191 991 1130.541 991.001 1131.236 C 991.005 1138.06 1000.884 1151 1006.089 1151 C 1014.485 1151 1028.909 1114.914 1040.565 1064.75 C 1042.888 1054.75 1043.094 1054.886 1045.87 1068.25 C 1058.207 1127.652 1069.902 1149.404 1082.518 1136.414 C 1084.433 1134.442 1086 1132.133 1086 1131.282 C 1086 1130.432 1086.909 1128.266 1088.019 1126.469 C 1089.13 1124.672 1090.943 1120.569 1092.049 1117.351 C 1093.155 1114.133 1095.383 1108.125 1096.999 1104 C 1098.616 1099.875 1100.843 1093.35 1101.948 1089.5 C 1106.929 1072.147 1110.135 1060.492 1113.502 1047.5 C 1115.497 1039.8 1117.58 1031.767 1118.13 1029.649 C 1119.567 1024.121 1120.018 1025.297 1122.572 1041.225 C 1131.127 1094.603 1146.568 1188.586 1149.541 1205.381 C 1155.604 1239.638 1167.882 1298.381 1169.538 1301.062 C 1169.833 1301.539 1171.646 1307.665 1173.568 1314.676 C 1193.645 1387.932 1211.566 1382.084 1240.965 1292.686 C 1242.197 1288.938 1243.361 1286.028 1243.551 1286.218 C 1243.741 1286.408 1245.514 1292.533 1247.491 1299.829 C 1267.887 1375.108 1286.846 1380.4 1309.008 1317 C 1310.258 1313.425 1311.577 1310.275 1311.94 1310 C 1312.672 1309.445 1316.086 1300.705 1319.165 1291.5 C 1323.962 1277.163 1326.285 1271.758 1327.057 1273.138 C 1328.581 1275.86 1336.059 1305.97 1343.416 1339 C 1403.976 1610.897 1436.667 1665.585 1480.007 1567.5 C 1483.409 1559.8 1486.438 1553.102 1486.738 1552.616 C 1487.038 1552.13 1489.171 1556.405 1491.477 1562.116 C 1514.756 1619.766 1539.646 1634.506 1555.5 1600.031 C 1556.6 1597.639 1558.738 1593.391 1560.25 1590.591 C 1567.221 1577.689 1576.087 1558.848 1584.999 1538 C 1591.951 1521.735 1592.505 1520.836 1593.526 1524.149 C 1595.599 1530.873 1634.552 1634.095 1643.472 1656.5 C 1704.73 1810.379 1742.446 1848.464 1769.737 1784 C 1773.763 1774.492 1780 1758.061 1780 1756.965 C 1780 1749.853 1782.238 1750.684 1786.823 1759.5 C 1812.577 1809.018 1836.962 1831.221 1854.88 1821.469 C 1857.696 1819.936 1860 1818.373 1860 1817.994 C 1860 1817.616 1861.575 1815.685 1863.5 1813.703 C 1865.425 1811.721 1867 1809.669 1867 1809.144 C 1867 1808.619 1868.578 1806.3 1870.507 1803.992 C 1872.435 1801.683 1874.299 1798.603 1874.648 1797.147 C 1874.998 1795.691 1876.377 1792.605 1877.713 1790.29 C 1881.622 1783.517 1891.908 1754.777 1900.543 1726.5 C 1907.413 1704.001 1918.585 1671.516 1919.401 1671.666 C 1919.897 1671.757 1925.898 1681.882 1932.738 1694.166 C 1967.262 1756.171 1982.39 1781.299 2001.57 1808.5 C 2006.224 1815.1 2010.812 1821.793 2011.766 1823.374 C 2012.72 1824.955 2018.107 1831.992 2023.739 1839.011 C 2075.869 1903.99 2104.97 1902.827 2121.626 1835.098 L 2124.43 1823.696 L 2126.465 1826.506 C 2127.584 1828.051 2130.697 1831.832 2133.383 1834.908 C 2136.068 1837.984 2139.771 1842.826 2141.612 1845.67 C 2153.444 1863.946 2183.815 1891.586 2198.318 1897.277 C 2226.419 1908.304 2243.135 1887.583 2253.399 1829 C 2254.219 1824.325 2255.621 1818.475 2256.517 1816 C 2257.987 1811.937 2261.055 1794.577 2262.35 1783 C 2262.627 1780.525 2263.319 1775.35 2263.888 1771.5 C 2264.457 1767.65 2265.126 1762.925 2265.374 1761 C 2272.235 1707.782 2282.947 1641.266 2286.606 1629.15 C 2286.861 1628.308 2288.801 1629.811 2291.757 1633.139 C 2412.74 1769.33 2479.264 1794.629 2495.22 1710.516 L 2496.42 1704.193 L 2504.46 1711.438 C 2508.882 1715.423 2513.797 1719.767 2515.383 1721.092 C 2516.969 1722.416 2518.769 1723.95 2519.383 1724.5 C 2547.897 1750.027 2589.908 1770.614 2609.438 1768.63 C 2621.004 1767.454 2640 1755.118 2640 1748.782 C 2640 1747.39 2641.111 1744.263 2642.47 1741.833 C 2648.743 1730.608 2655.004 1704.128 2656.498 1682.5 C 2656.84 1677.55 2661.842 1672.467 2657.714 1669 C 2653.586 1665.533 2660.393 1620.087 2658.404 1523 C 2656.415 1425.913 2656.671 1378.349 2659.128 1380.5 C 2661.585 1382.651 2660.052 1373.2 2660.412 1365.5 C 2660.773 1357.8 2661.263 1348.575 2661.502 1345 C 2661.74 1341.425 2663.13 1334.423 2662.523 1329.5 C 2659.141 1302.081 2666.054 1293.25 2669.208 1295.717 C 2673.223 1298.857 2705.323 1312.111 2729.5 1320.511 C 2733.9 1322.04 2737.95 1323.615 2738.5 1324.012 C 2767.891 1345.224 2835.372 1330.049 2852.131 1298.459 C 2854.793 1293.442 2855.165 1294.609 2860.864 1295.966 C 2884.232 1301.53 2929.347 1318.401 2953 1323.562 C 2958.114 1324.678 2964.836 1324.791 2967.692 1325.583 C 2983.218 1329.887 3017.093 1318.112 3030.762 1303.658 C 3051.195 1282.053 3062.317 1211.887 3056.068 1144 C 3055.486 1137.675 3054.761 1129.8 3054.457 1126.5 C 3053.841 1119.817 3053.865 1120.024 3050.976 1097 C 3048.854 1080.086 3044.445 1049.824 3040.996 1028.5 C 3039.051 1016.476 3035.194 991.131 3034.452 985.5 C 3032.904 973.759 3030.293 956.684 3026.424 933 C 3023.953 917.875 3019.918 893.125 3017.457 878 C 3014.996 862.875 3012.762 849.375 3012.494 848 C 3012.225 846.625 3011.561 838.975 3011.018 831 C 3010.475 823.025 3009.822 815.375 3009.567 814 C 3007.529 802.992 3000.583 750.601 2999.492 738 C 2999.135 733.875 2998.683 729.375 2998.488 728 C 2993.811 695.006 2994.946 618.648 3000.546 589.5 C 3010.121 539.659 3025.603 517.526 3059.5 505.224 C 3072.493 500.508 3104.028 491.672 3119 488.552 C 3132.816 485.673 3151.174 482.03 3167 479.025 C 3191.062 474.457 3223.487 467.179 3232.5 464.323 C 3235.25 463.452 3239.683 461.19 3242.352 459.298 C 3245.021 457.405 3251.31 454.29 3256.328 452.375 C 3292.442 438.593 3322.312 417.071 3345.271 388.288 C 3350.557 381.662 3362 363.951 3362 362.397 C 3362 362.032 3363.517 358.756 3365.37 355.117 C 3370.184 345.665 3373.058 337.891 3380.045 315.429 C 3382.751 306.728 3381.321 305.883 3368.276 308.475 M 3017 510.994 C 3006.147 514.57 2980.502 520.512 2962.5 523.623 C 2954.8 524.953 2939.275 527.627 2928 529.564 C 2835.311 545.49 2809.393 571.231 2805.227 651.5 C 2803.85 678.023 2804.418 728.158 2806.297 746 C 2808.141 763.513 2808.541 767.778 2809.536 780.5 C 2811.093 800.427 2814.359 824.568 2825.432 898 C 2828.686 919.579 2838.935 984.523 2843.934 1015.243 C 2855.868 1088.579 2861.241 1129.666 2863.555 1165.288 C 2863.884 1170.355 2864.325 1175.05 2864.535 1175.723 C 2864.745 1176.396 2865.193 1185.621 2865.53 1196.223 C 2865.867 1206.825 2866.286 1218.131 2866.46 1221.347 C 2867.285 1236.552 2874.46 1264.141 2859.85 1280 C 2855.386 1284.845 2869.2 1299.932 2902.869 1306.305 C 2923.261 1310.165 2941.462 1318.411 2960.754 1319.819 C 2967.079 1320.281 2972.974 1314.178 2974.776 1314.553 C 2979.357 1315.506 2995.875 1315.467 3004.366 1311.354 C 3018.661 1304.43 3021.367 1292.564 3030.976 1266.5 C 3043.961 1231.279 3047.845 1168.607 3033.964 1103.5 C 3033.039 1099.161 3032.696 1093.7 3032.411 1091.5 C 3032.127 1089.3 3031.491 1084.8 3031 1081.5 C 3030.509 1078.2 3029.833 1073.475 3029.498 1071 C 3029.163 1068.525 3028.027 1061.1 3026.973 1054.5 C 3023.558 1033.115 3020.145 1010.895 3017.448 992.5 C 3015.997 982.6 3011.964 957.175 3008.486 936 C 3005.008 914.825 3001.918 895.925 3001.618 894 C 3001.319 892.075 2999.926 883.75 2998.523 875.5 C 2994.21 850.139 2993.137 841.855 2992.928 832.293 C 2992.817 827.23 2992.115 819.58 2991.367 815.293 C 2982.021 761.704 2976.942 703.761 2977.492 657 C 2977.979 615.633 2981.236 587.55 2987.976 566.602 C 2996.827 539.091 3006.555 523.578 3023 510.752 C 3024.925 509.251 3026.275 508.061 3026 508.108 C 3025.725 508.155 3021.675 509.454 3017 510.994 M 658.712 603.477 C 653.221 614.992 646.72 661.56 644.05 708.5 C 643.455 718.95 642.737 728.928 642.454 730.673 C 641.666 735.52 663.959 850.836 673.061 889 C 684.763 938.068 692.316 957.165 696.099 947.25 C 698.794 940.183 703.358 910.777 705.449 887 C 706.344 876.825 708.202 856.474 709.578 841.776 L 712.08 815.052 L 704.51 775.776 C 673.997 617.457 666.14 587.9 658.712 603.477 M 806.771 625.75 C 801.506 631.739 795.782 649.825 790.867 676 C 787.015 696.515 785.87 703.4 783.046 723.019 L 780.188 742.873 L 782.582 755.686 C 783.899 762.734 787.481 783.125 790.543 801 C 793.604 818.875 798.765 849.025 802.013 868 C 815.584 947.299 826.174 991.598 834.607 1004.341 L 837.198 1008.256 L 839.593 1005.862 C 844.442 1001.013 847.974 985.987 859.053 923.091 L 865.29 887.683 L 861.556 867.091 C 859.503 855.766 853.165 818.6 847.472 784.5 C 827.989 667.799 823.909 648.464 815.147 631.287 C 811.539 624.216 809.377 622.786 806.771 625.75 M 605.231 626.25 C 602.664 629.416 597.314 652.18 596.574 663.085 C 596.372 666.063 595.265 677.05 594.115 687.5 C 591.564 710.664 589.106 753.115 588.186 789.889 L 587.5 817.278 L 591.678 836.389 C 607.776 910.028 620.207 953 625.412 953 C 629.147 953 631.159 928.924 632.934 863 C 633.519 841.275 634.228 817.65 634.51 810.5 C 635.745 779.168 637.034 747.922 637.378 741 C 638.033 727.795 622.993 660.616 613.272 633.322 C 610.907 626.685 607.389 623.59 605.231 626.25 M 744.441 654.683 C 735.67 674.357 728.42 711.093 721.068 773.118 C 716.089 815.132 716.041 811.704 722.004 840.5 C 736.08 908.467 746.924 941.485 752.034 931.937 C 754.547 927.241 760.425 884.791 764.488 842 C 768.193 802.974 770.688 779.183 773.223 758.708 C 775.724 738.507 775.729 738.56 768.385 702.087 C 759.857 659.735 750.472 641.154 744.441 654.683 M 538.594 657.056 C 537.705 659.279 536.491 664.339 535.898 668.299 C 535.305 672.26 534.433 677.075 533.961 679 C 531.765 687.957 528.633 770.789 529.637 793.381 C 530.57 814.39 559.042 935.08 568.092 956.39 C 573.418 968.93 575.865 970.597 578.015 963.151 C 579.524 957.921 582.798 874.017 583.042 834.295 L 583.151 816.5 L 577.015 788.5 C 552.258 675.532 543.37 645.121 538.594 657.056 M 489.709 679.25 C 483.937 691.603 481.989 728.726 482.427 818 L 482.72 877.5 L 488.411 906.5 C 503.302 982.379 512.278 1018.134 520.211 1033.183 C 529.967 1051.688 532.675 1032.181 530.023 962.5 C 529.499 948.75 528.82 929.85 528.514 920.5 C 528.207 911.15 527.752 899.45 527.502 894.5 C 527.252 889.55 526.776 869.75 526.444 850.5 C 525.514 796.563 525.973 801.191 518.021 765.5 C 502.268 694.796 494.089 669.878 489.709 679.25 M 974.764 737.128 C 968.509 743.703 956.481 773.967 953.155 791.5 C 952.633 794.25 949.975 805.145 947.248 815.71 C 942.866 832.69 942.388 835.535 943.134 840.21 C 943.598 843.12 946.66 862.15 949.937 882.5 C 953.215 902.85 957.741 932.325 959.994 948 C 978.082 1073.799 994.529 1145 1005.5 1145 C 1010.586 1145 1013.518 1138.427 1024.026 1103.475 C 1041.296 1046.032 1041.254 1046.317 1036.538 1018.166 C 1032.759 995.607 1029.977 976.976 1020.985 914 C 999.284 762.028 988.895 722.273 974.764 737.128 M 907.178 759.75 C 896.91 774.173 885.934 809.09 875.568 860.304 L 870.345 886.108 L 873.205 900.804 C 887.492 974.212 897.502 1002.492 903.98 987.75 C 906.26 982.562 915.749 942.756 920.368 919 C 921.278 914.325 925.266 893.85 929.232 873.5 C 937.451 831.328 937.392 832.446 932.644 809 C 923.801 765.33 915.136 748.573 907.178 759.75 M 1164.383 930.064 C 1160.751 931.141 1154.489 937.603 1150.529 944.361 C 1147.411 949.681 1127.615 999.395 1124.59 1009.5 C 1123.324 1013.729 1123.564 1015.304 1149.025 1170.5 C 1164.411 1264.287 1177.718 1320.486 1190.644 1346.27 C 1203.31 1371.538 1210.458 1362.801 1234.954 1292.107 L 1240.981 1274.715 L 1239.575 1269.107 C 1238.802 1266.023 1237.857 1261.475 1237.476 1259 C 1237.095 1256.525 1234.609 1243.475 1231.952 1230 C 1226.077 1200.204 1221.126 1170.782 1211.926 1111 C 1205.603 1069.913 1200.577 1038.903 1193.447 997 C 1184.289 943.181 1176.973 926.332 1164.383 930.064 M 1089.484 946.847 C 1077.369 954.235 1056.687 998.099 1049.983 1030.626 C 1049.317 1033.857 1048.141 1037.729 1047.37 1039.232 C 1043.041 1047.664 1065.86 1130.115 1073.304 1132.937 C 1075.729 1133.856 1078 1132.603 1078 1130.346 C 1078 1129.571 1078.675 1128.678 1079.5 1128.362 C 1080.325 1128.045 1081 1127.141 1081 1126.353 C 1081 1125.564 1081.878 1123.7 1082.951 1122.21 C 1087.567 1115.8 1096.789 1087.356 1107.498 1046.5 C 1110.093 1036.6 1113.444 1024.423 1114.945 1019.44 L 1117.673 1010.379 L 1114.41 995.175 C 1106.058 956.262 1098.398 941.411 1089.484 946.847 M 1371.322 1199.75 C 1365.964 1202.73 1358 1210.145 1358 1212.154 C 1358 1213.204 1357.325 1214.322 1356.5 1214.638 C 1355.675 1214.955 1355 1215.643 1355 1216.167 C 1355 1216.691 1353.383 1219.23 1351.407 1221.81 C 1348.121 1226.099 1340.758 1240.388 1333.223 1257.097 C 1331.473 1260.979 1330.559 1264.271 1331.003 1265.097 C 1332.611 1268.09 1341.315 1303.02 1348.43 1335.033 C 1377.457 1465.633 1393.831 1522.88 1417.493 1576.5 C 1438.547 1624.209 1448.838 1621.33 1475.901 1560.162 L 1483.892 1542.102 L 1478.906 1527.301 C 1465.735 1488.198 1450.662 1430.652 1432.988 1352 C 1429.219 1335.225 1424.716 1315.875 1422.981 1309 C 1421.247 1302.125 1419.206 1293.575 1418.446 1290 C 1415.162 1274.563 1404.401 1236.876 1400.314 1226.5 C 1390.226 1200.889 1382.347 1193.619 1371.322 1199.75 M 1287 1209.103 C 1283.062 1211.461 1277 1216.973 1277 1218.195 C 1277 1218.636 1275.006 1221.585 1272.568 1224.749 C 1268.265 1230.333 1254.632 1256.562 1249.613 1268.913 L 1247.134 1275.016 L 1251.977 1293.258 C 1264.797 1341.54 1275.275 1361.12 1283.01 1351.25 C 1284.195 1349.737 1285.84 1348.256 1286.664 1347.958 C 1289.454 1346.95 1300.133 1324.22 1303.557 1312 C 1303.942 1310.625 1305.951 1305.9 1308.021 1301.499 C 1310.09 1297.098 1313.017 1289.448 1314.525 1284.499 C 1316.032 1279.55 1318.73 1272.173 1320.521 1268.107 L 1323.777 1260.715 L 1321.007 1252.607 C 1306.628 1210.517 1299.617 1201.548 1287 1209.103 M 2700.882 1233.381 C 2686.839 1233.661 2671.729 1250.802 2669.529 1280.827 L 2668.904 1284.526 L 2683.648 1291.382 C 2701.227 1299.555 2716.419 1305.737 2729.16 1309.901 C 2734.297 1311.58 2742.325 1314.511 2747 1316.414 C 2770.327 1325.909 2804.251 1325.579 2819.168 1315.712 C 2830.643 1308.121 2842.151 1293.502 2841.82 1288.377 C 2841.422 1282.216 2785.497 1259.607 2763.78 1244.476 C 2736.385 1225.389 2716.039 1228.342 2706.162 1231.872 M 2531.869 1246.8 C 2518.119 1253.983 2507.291 1277.354 2504.906 1305 C 2504.36 1311.325 2503.443 1318.75 2502.867 1321.5 C 2502.291 1324.25 2501.466 1331.9 2501.034 1338.5 C 2500.602 1345.1 2499.721 1356.933 2499.077 1364.797 C 2497.241 1387.188 2497.654 1512.078 2499.606 1524.922 C 2500.538 1531.061 2500.723 1660.929 2499.82 1675.975 L 2498.831 1692.45 L 2505.666 1698.75 C 2552.398 1741.833 2592.003 1764.504 2610.336 1758.667 C 2616.802 1756.608 2627 1748.536 2627 1745.477 C 2627 1744.278 2628.105 1741.22 2629.455 1738.68 C 2635.712 1726.913 2640.797 1706.084 2642.561 1685 C 2642.906 1680.875 2641.504 1675.401 2643.776 1675 C 2646.048 1674.599 2639.925 1601.131 2644.496 1526 C 2649.067 1450.869 2647.476 1379.632 2645.291 1374.5 C 2643.106 1369.368 2646.231 1360.938 2646.984 1350.5 C 2648.938 1323.403 2653.971 1319.892 2652.533 1291.5 C 2652.329 1287.468 2653.083 1287.5 2647.826 1285 C 2644.935 1283.625 2631.528 1276.763 2618.034 1269.751 C 2571.118 1245.372 2546.934 1238.93 2531.869 1246.8 M 1635.72 1460.045 C 1622.541 1468.823 1612.9 1480.705 1601.568 1502.141 L 1595.942 1512.782 L 1617.373 1570.141 C 1711.532 1822.157 1742.71 1857.295 1774.997 1747.781 L 1777.273 1740.062 L 1775.026 1734.781 C 1773.791 1731.876 1772.204 1728.825 1771.501 1728 C 1770.139 1726.403 1754.689 1691.213 1753.499 1687 C 1753.111 1685.625 1751.741 1682.025 1750.455 1679 C 1745.44 1667.201 1731.464 1630.728 1717.502 1593 C 1670.53 1466.079 1657.782 1445.353 1635.72 1460.045 M 1542 1460.5 C 1539.139 1462.425 1536.486 1464 1536.102 1464 C 1535.233 1464 1528 1471.348 1528 1472.231 C 1528 1472.587 1525.519 1476.337 1522.486 1480.564 C 1514.308 1491.962 1506.991 1505.426 1498.431 1524.825 L 1490.787 1542.15 L 1493.548 1549.825 C 1515.43 1610.658 1540.28 1628.622 1551.197 1591.5 C 1551.844 1589.3 1553.686 1585.552 1555.29 1583.17 C 1558.41 1578.538 1569.549 1555.766 1573.042 1546.879 C 1574.205 1543.92 1575.761 1540.15 1576.5 1538.5 C 1589.42 1509.659 1588.984 1512.151 1583.285 1499.755 C 1567.003 1464.344 1554.274 1452.241 1542 1460.5 M 2187.625 1548.416 C 2167.599 1555.829 2151.154 1614.842 2138.975 1723 C 2134.685 1761.096 2132.355 1779.051 2129.458 1796.323 C 2128.091 1804.476 2127.272 1811.676 2127.639 1812.323 C 2130.8 1817.904 2138.327 1828.589 2142.556 1833.5 C 2145.398 1836.8 2148.875 1841.347 2150.282 1843.604 C 2157.87 1855.775 2186.206 1883.155 2196.729 1888.483 C 2219.827 1900.179 2236.36 1877.544 2243.574 1824.351 C 2243.932 1821.715 2245.083 1816.872 2246.131 1813.588 C 2247.18 1810.305 2248.281 1806.242 2248.578 1804.559 C 2249.154 1801.288 2249.419 1799.322 2253.425 1768.5 C 2257.341 1738.372 2259.118 1724.823 2259.589 1721.5 C 2259.822 1719.85 2260.902 1712.2 2261.989 1704.5 C 2265.978 1676.238 2270.684 1649.021 2274.872 1630 L 2277.624 1617.5 L 2267.167 1606 C 2225.275 1559.927 2202.017 1543.089 2187.625 1548.416 M 2323.731 1549.295 C 2312.07 1554.369 2300.931 1574.366 2292.43 1605.488 L 2289.155 1617.476 L 2297.304 1626.488 C 2376.937 1714.549 2443.083 1766.854 2453.5 1750 C 2453.84 1749.45 2455.637 1749 2457.494 1749 C 2469.17 1749 2480.336 1730.48 2485.346 1702.805 L 2486.739 1695.111 L 2482.119 1690.269 C 2464.169 1671.455 2444.904 1650.822 2430.514 1635 C 2371.341 1569.936 2337.927 1543.118 2323.731 1549.295 M 1848.067 1594.096 C 1839.314 1598.736 1831.653 1607.925 1825.635 1621 C 1818.04 1637.504 1812.167 1652.059 1811.506 1656.017 C 1811.095 1658.483 1809.739 1662.525 1808.494 1665 C 1807.249 1667.475 1803.959 1677.15 1801.183 1686.5 C 1791.491 1719.14 1786 1738.6 1786 1740.312 C 1786 1745.043 1805.053 1778.654 1815.949 1793.144 C 1836.042 1819.865 1845.249 1823.183 1856.788 1807.865 C 1862.851 1799.815 1864.861 1796.546 1869.002 1788 C 1873.993 1777.7 1880.065 1762.078 1884.55 1748 C 1885.514 1744.975 1886.887 1740.7 1887.602 1738.5 C 1888.317 1736.3 1890.762 1728.425 1893.036 1721 C 1895.309 1713.575 1900.732 1696.737 1905.087 1683.582 L 1913.005 1659.663 L 1904.939 1646.582 C 1876.226 1600.016 1861.878 1586.775 1848.067 1594.096 M 1966 1594.5 C 1964.625 1595.286 1962.777 1595.945 1961.894 1595.965 C 1957.197 1596.068 1940 1615.643 1940 1620.885 C 1940 1621.835 1938.875 1624.136 1937.5 1626 C 1936.125 1627.864 1935 1630.404 1935 1631.645 C 1935 1632.885 1934.391 1634.26 1933.647 1634.7 C 1932.149 1635.585 1928.358 1643.833 1924.608 1654.366 L 1922.164 1661.232 L 1925.911 1667.366 C 1927.972 1670.74 1936.776 1686.325 1945.476 1702 C 1971.951 1749.703 1995.477 1788.892 2002.868 1797.602 C 2004.316 1799.309 2006.4 1802.197 2007.5 1804.02 C 2011.564 1810.758 2013.583 1813.729 2017.042 1818.062 C 2018.99 1820.503 2021.172 1823.678 2021.891 1825.119 C 2024.171 1829.688 2044.373 1853.152 2054.141 1862.575 C 2084.921 1892.267 2100.917 1883.425 2113.527 1829.746 C 2117.859 1811.306 2118.056 1813.494 2111.145 1803.212 C 2107.925 1798.42 2101.108 1787.525 2095.995 1779 C 2090.882 1770.475 2085.492 1761.925 2084.017 1760 C 2081.626 1756.88 2070.337 1737.432 2054.994 1710 C 2006.741 1623.726 1978.65 1587.269 1966 1594.5" stroke="none" fill="#10ce42" fill-rule="evenodd"/>
  <path d="M 3146.500 366.187 C 3138.935 367.379, 3138.853 367.479, 3135.532 379.500 C 3131.025 395.816, 3119.248 425, 3117.170 425 C 3116.686 425, 3112.677 429.613, 3108.261 435.250 C 3071.306 482.429, 3038.167 498.446, 2943.132 515.063 C 2841.478 532.839, 2809.507 554.253, 2795.074 614.232 C 2789.622 636.888, 2787.335 707.006, 2790.939 741 C 2791.959 750.625, 2793.048 761.425, 2793.359 765 C 2796.407 800.047, 2797.495 810.294, 2800.097 828.500 C 2803.878 854.946, 2809.268 890.867, 2812.476 911 C 2813.834 919.525, 2816.575 936.850, 2818.567 949.500 C 2820.559 962.150, 2825.979 995.900, 2830.613 1024.500 C 2841.734 1093.141, 2848.178 1144.372, 2850.487 1182.500 C 2850.820 1188, 2851.311 1194.934, 2851.577 1197.908 C 2853.204 1216.068, 2851.832 1251.606, 2848.948 1266 L 2847.045 1275.500 2849.272 1277.229 C 2852.458 1279.702, 2857.985 1281.415, 2859.119 1280.281 C 2862.445 1276.955, 2867.344 1237.632, 2866.460 1221.347 C 2866.286 1218.131, 2865.867 1206.825, 2865.530 1196.223 C 2865.193 1185.621, 2864.745 1176.396, 2864.535 1175.723 C 2864.325 1175.050, 2863.884 1170.355, 2863.555 1165.288 C 2861.241 1129.666, 2855.868 1088.579, 2843.934 1015.243 C 2838.935 984.523, 2828.686 919.579, 2825.432 898 C 2814.359 824.568, 2811.093 800.427, 2809.536 780.500 C 2808.541 767.778, 2808.141 763.513, 2806.297 746 C 2804.418 728.158, 2803.850 678.023, 2805.227 651.500 C 2809.393 571.231, 2835.311 545.490, 2928 529.564 C 2939.275 527.627, 2954.800 524.953, 2962.500 523.623 C 2997.291 517.612, 3020.137 511.165, 3035 503.164 C 3047.295 496.545, 3048.991 495.759, 3059.217 491.950 C 3075.124 486.023, 3096.389 469.325, 3113.909 449 C 3118.413 443.775, 3124.391 436.933, 3127.194 433.795 C 3133.124 427.155, 3135.924 422.523, 3140.671 411.500 C 3148.160 394.110, 3156.650 367.860, 3155.426 365.880 C 3154.812 364.887, 3154.734 364.889, 3146.500 366.187 M 602.681 620.800 C 599.405 624.420, 593.519 648.183, 592.544 661.726 C 592.315 664.902, 591.206 676.500, 590.079 687.500 C 588.059 707.214, 585.745 745.761, 584.402 782.062 C 583.803 798.272, 583.952 801.631, 585.583 808.562 L 587.450 816.500 588.156 789.500 C 589.115 752.808, 591.590 710.430, 594.114 687.500 C 595.264 677.050, 596.377 665.950, 596.588 662.834 C 597.510 649.200, 603.667 626.238, 606.661 625.268 C 612.033 623.530, 619.022 645.964, 632.408 707.908 L 637.682 732.315 638.334 726.080 C 638.765 721.953, 638.459 717.252, 637.428 712.173 C 622.433 638.296, 611.905 610.608, 602.681 620.800 M 744.689 644.250 C 735.467 652.815, 725.291 699.474, 716.960 771.388 C 713.974 797.165, 713.830 799.815, 715.062 806.388 L 716.394 813.500 717.171 807 C 717.598 803.425, 719.333 788.575, 721.025 774 C 729.645 699.780, 741.340 648.046, 749.240 649.183 C 755.669 650.107, 765.695 683.288, 773.660 730 C 775.316 739.708, 775.505 740.198, 776.168 736.500 C 778.665 722.565, 769.860 679.434, 759.476 654.741 C 754.359 642.573, 749.900 639.410, 744.689 644.250 M 488.610 671.879 C 486.259 674.477, 483.397 683.912, 482.073 693.430 C 478.431 719.615, 477.430 850.680, 480.744 867.477 C 482.512 876.443, 482.514 876.379, 482.328 817.477 C 482.045 727.890, 483.989 691.492, 489.709 679.250 C 494.155 669.735, 503.111 697.508, 519.134 770.500 C 525.192 798.097, 525.514 799.179, 525.793 792.871 C 526.107 785.757, 521.807 763.837, 513.459 730 C 501.074 679.802, 494.774 665.067, 488.610 671.879 M 641.936 739 C 641.036 749.129, 646.754 783.320, 660.582 850.500 C 681.787 953.513, 695.833 980.346, 704.030 933.500 C 708.892 905.719, 715.405 830.238, 713.662 821.878 L 712.332 815.500 711.658 820.500 C 711.001 825.374, 708.742 849.568, 705.449 887 C 702.566 919.776, 697.091 950, 694.037 950 C 686.635 950, 673.178 897.603, 652.046 786.500 C 642.326 735.393, 642.277 735.162, 641.936 739 M 780.076 744.500 C 780.028 745.050, 779.566 748.082, 779.049 751.238 C 778.275 755.962, 778.543 759.196, 780.566 769.541 C 781.917 776.452, 786.413 802.220, 790.557 826.803 C 794.701 851.387, 800.328 883.792, 803.062 898.816 C 807.332 922.283, 809.822 934.241, 817.466 968 C 827.163 1010.829, 839.368 1024.416, 847.813 1001.784 C 856.056 979.696, 871.141 882.526, 865.442 888.224 C 865.286 888.381, 862.168 905.382, 858.515 926.005 C 847.523 988.054, 844.456 1000.999, 839.593 1005.862 L 837.198 1008.256 834.607 1004.341 C 826.174 991.598, 815.584 947.299, 802.013 868 C 787.008 780.326, 784.819 767.716, 782.566 756 C 781.245 749.125, 780.124 743.950, 780.076 744.500 M 906.024 752.633 C 904.302 754.082, 901.578 757.874, 899.969 761.061 C 898.361 764.247, 896.585 767.139, 896.022 767.486 C 895.460 767.834, 895 769.009, 895 770.099 C 895 771.188, 894.151 773.749, 893.113 775.790 C 884.012 793.685, 866.856 868.047, 869.087 879.931 L 870.295 886.361 875.543 860.431 C 888.114 798.315, 902.669 757, 911.979 757 C 919.181 757, 925.524 773.134, 932.617 809.500 C 937.598 835.039, 937.030 833.443, 938.671 826.500 C 940.005 820.858, 939.929 819.694, 937.411 807 C 928.279 760.978, 917.760 742.758, 906.024 752.633 M 401.370 777.250 C 401.701 778.487, 401.979 779.795, 401.986 780.156 C 401.994 780.517, 402.847 780.591, 403.883 780.320 C 410.095 778.696, 418.109 808.923, 436.014 901.500 C 457.656 1013.404, 468.282 1051.560, 479.045 1056.019 C 483.572 1057.894, 485.770 1055.302, 487.171 1046.435 C 489.446 1032.044, 485.334 909.214, 482.018 892.500 C 479.561 880.116, 479.563 882.859, 482.065 940.183 C 485.518 1019.333, 485.152 1052, 480.813 1052 C 471.310 1052, 460.509 1012.358, 437.489 893 C 419.472 799.585, 412.457 775, 403.815 775 C 401.142 775, 400.841 775.277, 401.370 777.250 M 529.532 810.779 C 530.349 824.710, 548.719 905.567, 558.663 939 C 567.800 969.721, 575.645 980.275, 580.574 968.477 C 584.336 959.474, 588.303 838.938, 585.263 826.003 L 583.500 818.500 583.276 830.500 C 582.218 887.298, 579.463 957.575, 578.096 962.647 C 573.163 980.951, 562.860 950.164, 540.400 850 C 534.666 824.425, 529.752 803.050, 529.481 802.500 C 529.210 801.950, 529.233 805.675, 529.532 810.779 M 941.212 840.193 C 939.485 846.879, 939.678 850.939, 942.513 867.671 C 946.924 893.697, 950.842 918.674, 955.428 950 C 961.127 988.932, 972.102 1054.633, 976.495 1076.111 C 980.782 1097.076, 987.859 1124.317, 990.036 1128.236 C 990.566 1129.191, 991 1130.541, 991.001 1131.236 C 991.005 1138.060, 1000.884 1151, 1006.089 1151 C 1013.890 1151, 1017.435 1143.840, 1029.364 1103.998 C 1042.379 1060.527, 1043.308 1056.375, 1041.833 1048.222 C 1041.165 1044.525, 1040.446 1042.400, 1040.237 1043.500 C 1032.438 1084.426, 1011.707 1145, 1005.500 1145 C 994.529 1145, 978.082 1073.799, 959.994 948 C 957.741 932.325, 953.247 903.075, 950.008 883 C 946.770 862.925, 943.738 844.025, 943.272 841 L 942.423 835.500 941.212 840.193 M 1086.484 940.847 C 1076.324 947.043, 1065.206 966.017, 1056.220 992.500 C 1045.148 1025.128, 1043.425 1032.570, 1045.469 1038.934 L 1046.251 1041.368 1047.514 1038.934 C 1048.208 1037.595, 1049.320 1033.857, 1049.985 1030.626 C 1056.801 997.499, 1078.194 952.605, 1090.096 946.450 C 1098.677 942.013, 1106.264 957.225, 1114.418 995.212 L 1117.689 1010.453 1119.435 1005.196 C 1121.161 999.999, 1121.150 999.803, 1118.481 988.219 C 1109.219 948.028, 1099.151 933.122, 1086.484 940.847 M 1122.046 1016.500 C 1119.832 1022.074, 1119.864 1024.463, 1122.366 1040 C 1142.969 1167.947, 1150.556 1212.817, 1157.115 1245.500 C 1161.642 1268.056, 1168.728 1299.751, 1169.538 1301.062 C 1169.833 1301.539, 1171.646 1307.665, 1173.568 1314.676 C 1192.417 1383.453, 1208.888 1382.459, 1234.441 1311 C 1238.079 1300.825, 1241.633 1290.925, 1242.337 1289 C 1243.532 1285.734, 1242.719 1278.326, 1240.979 1276.632 C 1240.692 1276.353, 1238.497 1281.834, 1236.100 1288.812 C 1206.157 1375.998, 1196.747 1379.397, 1177.446 1310 C 1165.167 1265.849, 1158.886 1232.213, 1133.002 1072 C 1122.578 1007.475, 1123.591 1012.611, 1122.046 1016.500 M 1286.268 1201.965 C 1282.047 1203.881, 1272 1212.473, 1272 1214.166 C 1272 1214.657, 1270.134 1217.408, 1267.854 1220.279 C 1260.120 1230.017, 1244.754 1262.703, 1245.438 1267.960 C 1246.274 1274.379, 1247.440 1274.763, 1249.499 1269.296 C 1253.230 1259.391, 1268.303 1230.283, 1272.568 1224.749 C 1275.006 1221.585, 1277 1218.600, 1277 1218.115 C 1277 1214.816, 1289.246 1207, 1294.416 1207 C 1302.586 1207, 1315.918 1230.831, 1322.529 1257.250 C 1323.386 1260.676, 1324.344 1260.735, 1325.839 1257.453 C 1327.537 1253.728, 1327.428 1253.153, 1322.399 1239.234 C 1310.095 1205.182, 1300.648 1195.437, 1286.268 1201.965 M 2532.589 1236.118 C 2511.530 1241.058, 2494.579 1272.582, 2492.340 1310.973 C 2492.002 1316.763, 2491.328 1322.275, 2490.842 1323.222 C 2490.357 1324.170, 2489.779 1329.570, 2489.558 1335.222 C 2489.337 1340.875, 2488.589 1349.550, 2487.895 1354.500 C 2485.722 1370.005, 2486.232 1495.383, 2488.653 1541 C 2489.457 1556.137, 2489.473 1671.148, 2488.673 1677.205 C 2488.059 1681.855, 2494.097 1691, 2497.781 1691 C 2501.041 1691, 2501.564 1515.226, 2498.384 1488.500 C 2497.347 1479.779, 2497.848 1378.124, 2498.994 1365 C 2499.641 1357.575, 2500.545 1345.875, 2501.001 1339 C 2501.457 1332.125, 2502.299 1324.250, 2502.872 1321.500 C 2503.445 1318.750, 2504.360 1311.325, 2504.906 1305 C 2510.653 1238.396, 2538.669 1228.825, 2614 1267.732 C 2659.474 1291.218, 2653.690 1289.316, 2655.427 1281.356 C 2656.242 1277.619, 2657.474 1278.402, 2623 1260.735 C 2578.218 1237.786, 2553.811 1231.140, 2532.589 1236.118 M 1328.470 1267.141 C 1326.783 1270.678, 1326.816 1270.919, 1331.366 1288.110 C 1333.898 1297.674, 1339.324 1320.575, 1343.424 1339 C 1389.401 1545.627, 1424.033 1633.278, 1451.728 1613.100 C 1467.259 1601.784, 1494.409 1543, 1484.104 1543 C 1483.754 1543, 1480.358 1550.088, 1476.558 1558.750 C 1449.164 1621.196, 1438.616 1624.366, 1417.493 1576.500 C 1393.831 1522.880, 1377.457 1465.633, 1348.430 1335.033 C 1341.247 1302.713, 1332.606 1268.078, 1330.966 1265.032 C 1330.368 1263.919, 1329.762 1264.431, 1328.470 1267.141 M 2667.660 1286.750 C 2665.970 1292.984, 2666.027 1293.788, 2668.258 1295.242 C 2674.941 1299.598, 2704.969 1311.988, 2729.500 1320.511 C 2733.900 1322.040, 2737.950 1323.615, 2738.500 1324.012 C 2762.965 1341.669, 2821.886 1333.506, 2843.910 1309.408 C 2855.075 1297.192, 2856.226 1293.078, 2849.331 1290.028 C 2843.037 1287.244, 2842.873 1287.313, 2839.636 1294.141 C 2826.541 1321.762, 2784.761 1331.805, 2747 1316.408 C 2742.325 1314.502, 2734.900 1311.783, 2730.500 1310.367 C 2718.236 1306.418, 2701.029 1299.463, 2684.753 1291.875 C 2668.496 1284.296, 2668.338 1284.249, 2667.660 1286.750 M 1541.370 1452.440 C 1539.649 1453.190, 1537.935 1454.297, 1537.561 1454.901 C 1537.188 1455.506, 1536.118 1456, 1535.183 1456 C 1533.236 1456, 1523.611 1465.465, 1521.149 1469.800 C 1520.242 1471.398, 1516.663 1476.934, 1513.195 1482.102 C 1507.191 1491.051, 1494.841 1515.018, 1489.970 1527.172 C 1487.898 1532.341, 1487.811 1533.253, 1488.986 1537.451 C 1490.594 1543.194, 1489.802 1544.286, 1498.904 1523.779 C 1507.411 1504.612, 1514.358 1491.893, 1522.574 1480.441 C 1525.558 1476.282, 1528 1472.547, 1528 1472.142 C 1528 1471.268, 1535.313 1464, 1536.192 1464 C 1536.526 1464, 1539.139 1462.425, 1542 1460.500 C 1554.338 1452.197, 1567.167 1464.491, 1583.504 1500.274 L 1588.423 1511.049 1590.161 1507.774 C 1592.286 1503.771, 1592.127 1503.169, 1585.390 1489.703 C 1569.935 1458.809, 1555.267 1446.393, 1541.370 1452.440 M 1593.704 1517.494 C 1592.490 1520.040, 1592.299 1521.601, 1592.998 1523.244 C 1593.527 1524.485, 1602.770 1549.125, 1613.540 1578 C 1703.161 1818.287, 1740.683 1862.526, 1775.661 1769.137 C 1782.188 1751.712, 1782.382 1750.653, 1780.030 1745.335 C 1777.490 1739.594, 1777.883 1739.110, 1772.947 1754.054 C 1757.836 1799.801, 1745.993 1814.392, 1731.670 1804.905 C 1704.846 1787.138, 1675.367 1726.124, 1614.437 1562.263 C 1604.572 1535.732, 1596.246 1514.020, 1595.935 1514.013 C 1595.625 1514.006, 1594.621 1515.572, 1593.704 1517.494 M 2187.326 1540.139 C 2160.451 1544.844, 2143.223 1600.070, 2129.504 1725.500 C 2127.579 1743.100, 2124.612 1767.296, 2122.910 1779.270 L 2119.817 1801.039 2123.037 1806.058 C 2124.808 1808.818, 2126.453 1810.880, 2126.692 1810.641 C 2128.188 1809.146, 2133.675 1769.937, 2139.028 1722.500 C 2148.387 1639.568, 2158.154 1594.623, 2173.621 1563.321 C 2188.139 1533.939, 2210.818 1544.249, 2267.028 1605.783 C 2277.872 1617.654, 2278.508 1617.940, 2279.548 1611.427 L 2280.199 1607.354 2265.246 1591.427 C 2226.946 1550.633, 2206.028 1536.865, 2187.326 1540.139 M 1846.146 1585.964 C 1844.851 1587.078, 1843.345 1587.714, 1842.800 1587.376 C 1840.322 1585.845, 1826.290 1602.650, 1820.153 1614.500 C 1814.799 1624.838, 1805.055 1648.637, 1803.904 1654.187 C 1803.297 1657.109, 1802.218 1660.425, 1801.504 1661.556 C 1796.625 1669.294, 1780.539 1728.572, 1782.064 1733.194 C 1784.811 1741.517, 1785.320 1741.076, 1789.415 1726.827 C 1800.537 1688.122, 1806.368 1669.205, 1808.446 1665.085 C 1809.718 1662.563, 1811.095 1658.483, 1811.506 1656.017 C 1812.153 1652.141, 1815.187 1644.567, 1825.317 1621.536 C 1845.603 1575.414, 1868.558 1584.104, 1909.096 1653.250 C 1913.102 1660.083, 1913.302 1660.144, 1914.991 1655.026 L 1916.303 1651.052 1908.800 1639.153 C 1881.220 1595.410, 1858.039 1575.732, 1846.146 1585.964 M 2288.694 1618.687 C 2285.797 1623.373, 2286.770 1627.587, 2292.128 1633.562 C 2409.481 1764.441, 2468.454 1790.872, 2491.691 1723.002 C 2497.146 1707.070, 2497.138 1704.436, 2491.623 1699.076 C 2486.525 1694.123, 2486.776 1693.919, 2484.950 1704.500 C 2480.513 1730.217, 2468.923 1749, 2457.494 1749 C 2455.637 1749, 2453.840 1749.450, 2453.500 1750 C 2451.810 1752.735, 2438.337 1749.801, 2427.065 1744.244 C 2396.673 1729.262, 2361.951 1697.527, 2292.907 1621.632 C 2290.931 1619.460, 2289.035 1618.135, 2288.694 1618.687 M 1920.096 1666.073 C 1919.328 1668.638, 1919.222 1670.581, 1919.811 1671.323 C 1920.326 1671.970, 1929.526 1688.250, 1940.257 1707.500 C 1970.256 1761.316, 1982.341 1781.223, 2001.571 1808.500 C 2006.224 1815.100, 2010.812 1821.793, 2011.766 1823.374 C 2018.732 1834.919, 2044.884 1864.473, 2055.880 1873.227 C 2088.327 1899.058, 2108.203 1888.023, 2121.097 1837.019 C 2124.695 1822.788, 2124.696 1822.873, 2120.794 1817.200 L 2117.587 1812.539 2114.336 1826.520 C 2101.098 1883.446, 2085.476 1892.803, 2054.141 1862.575 C 2044.373 1853.152, 2024.171 1829.688, 2021.891 1825.119 C 2021.172 1823.678, 2018.990 1820.503, 2017.042 1818.062 C 2013.583 1813.729, 2011.564 1810.758, 2007.500 1804.020 C 2006.400 1802.197, 2004.316 1799.309, 2002.868 1797.602 C 1995.727 1789.187, 1971.671 1749.239, 1948.007 1706.500 C 1921.663 1658.923, 1922.064 1659.504, 1920.096 1666.073" stroke="none" fill="#ffffff" fill-rule="evenodd"/>
  <path d="M 3370.276 309.481 C 3362.465 311.025 3361.462 311.882 3359.951 318.3 C 3356.619 332.454 3347.796 355.664 3342.682 363.73 C 3341.207 366.057 3340 368.179 3340 368.445 C 3340 369.364 3334.489 377.551 3328.812 385.068 C 3310.075 409.878 3278.556 432.039 3247.237 442.424 C 3244.343 443.384 3239.353 445.919 3236.15 448.059 C 3228.667 453.056 3215.023 456.65 3170 465.488 C 3118.869 475.524 3097.832 480.367 3079 486.439 C 3073.225 488.301 3065.203 490.788 3061.172 491.965 C 3013.056 506.017 2987.935 544.186 2980.854 614 C 2978.809 634.155 2979.283 714.404 2981.512 725.5 C 2981.733 726.6 2982.14 730.425 2982.418 734 C 2983.479 747.694 2987.027 776.265 2991.419 806.5 C 2992.777 815.85 2994.168 828 2994.508 833.5 C 2995.171 844.2 2995.726 848.126 3001.933 886 C 3012.107 948.074 3016.96 978.124 3018.004 985.5 C 3018.627 989.9 3021.588 1009.475 3024.585 1029 C 3027.581 1048.525 3030.227 1065.85 3030.464 1067.5 C 3030.702 1069.15 3031.812 1076.8 3032.931 1084.5 C 3035.404 1101.505 3038.668 1129.43 3039.536 1141 C 3039.886 1145.675 3040.375 1151.075 3040.621 1153 C 3045.379 1190.13 3039.08 1250.595 3027.036 1283.419 C 3020.194 1302.065 2994.369 1318.171 2975.5 1315.56 C 2973.3 1315.255 2966.325 1314.574 2960 1314.045 C 2936.134 1312.05 2918.574 1307.885 2895.5 1298.747 C 2890 1296.569 2883.25 1293.909 2880.5 1292.837 C 2877.75 1291.765 2854.35 1280.394 2828.5 1267.567 C 2802.65 1254.74 2777.675 1242.584 2773 1240.553 C 2768.325 1238.521 2763.6 1236.454 2762.5 1235.958 C 2697.284 1206.569 2661.979 1222.603 2652.517 1295.816 C 2652.162 1298.566 2651.746 1306.631 2651.509 1308 C 2649.891 1317.358 2641.992 1359.545 2645.997 1393.5 C 2647.196 1403.663 2647.206 1447.418 2645.687 1490 C 2642.767 1571.861 2639.258 1669.675 2638.934 1676 C 2637.671 1700.666 2628.483 1734.738 2628 1743.676 C 2627.668 1749.825 2611.667 1759.817 2603.017 1758.652 C 2570.112 1754.219 2523.086 1719.911 2461.795 1652.983 C 2425.998 1613.895 2407.67 1596.704 2387.5 1577.033 C 2311.58 1502.993 2290.278 1510.205 2258.999 1726.276 C 2253.18 1766.469 2248.984 1802.453 2247.535 1806.739 C 2246.785 1808.957 2244.305 1821.666 2242.087 1831.328 C 2231.479 1877.547 2215.237 1901.149 2196.042 1886.652 C 2186.77 1879.649 2158.924 1856.291 2150.626 1844.017 C 2149.163 1841.853 2145.762 1836.835 2142.946 1833.535 C 2136.86 1826.403 2110.506 1786.849 2104.194 1775.374 C 2101.756 1770.942 2095.964 1761.894 2093.683 1758.805 C 2089.714 1753.434 2082.646 1742.194 2065.504 1711.535 C 2001.254 1596.626 1979.316 1576.772 1955.847 1576.256 C 1942.384 1575.96 1916.634 1644.812 1899.281 1699.639 C 1894.158 1715.825 1881.997 1753.142 1881.552 1754.517 C 1875.892 1772.002 1866.715 1795.363 1863.869 1797.356 C 1862.841 1798.076 1860.552 1800.72 1860.552 1801.462 C 1860.552 1802.702 1857.795 1807.396 1852.915 1812.722 C 1839.269 1827.616 1810.02 1794.905 1784.92 1736.965 C 1783.133 1732.84 1780.704 1726.521 1779.93 1725.035 C 1778.175 1721.666 1768.997 1692.372 1762.056 1684.383 C 1759.058 1680.932 1756.097 1673.831 1750.424 1655.896 C 1744.751 1637.961 1732.876 1608.423 1727.438 1595 C 1705.926 1541.901 1693.535 1509.956 1682.041 1485.903 C 1651.367 1421.712 1621.979 1436.81 1576.188 1535.17 C 1563.108 1563.266 1560.465 1574.564 1556.193 1581.327 C 1554.215 1584.459 1539.306 1609.104 1532.97 1609.104 C 1510.215 1609.104 1471.67 1502.018 1437.013 1337.483 C 1435.333 1329.508 1419.9 1268.468 1417.952 1261.035 C 1399.98 1192.476 1379.711 1179.491 1368.311 1188.677 C 1342.05 1209.838 1321.146 1263.896 1316.937 1276.655 C 1314.624 1283.666 1310.402 1292.15 1307.443 1301.155 C 1306.685 1303.463 1302.735 1313.227 1300.45 1319.552 C 1294.911 1334.883 1289.477 1345.052 1287.832 1343.407 C 1287.481 1343.057 1285.258 1347.107 1284.071 1348.869 C 1268.708 1371.667 1245.979 1291.496 1219.467 1117.965 C 1193.012 944.8 1187.591 922.491 1168.97 922.211 C 1156.315 922.02 1147.467 930.242 1135.121 962.638 C 1131.882 971.134 1127.628 983.004 1125.076 989.604 C 1119.541 1003.919 1115.143 1017.301 1106.991 1048.086 C 1095.277 1092.325 1084.415 1123.846 1079.417 1128.032 C 1079.087 1128.309 1078.766 1129.548 1078.115 1130.785 C 1071.546 1143.257 1058.551 1108.882 1048.435 1052.448 C 1047.006 1044.473 1044.251 1033.35 1043.492 1029.5 C 1041.751 1020.667 1034.918 969.556 1031.489 944.5 C 1005.297 753.127 991.798 707.145 971.217 730.526 C 964.539 738.112 948.517 774.886 948.517 783.517 C 948.517 784.751 946.486 794.334 944.003 803.631 C 938.671 823.602 933.796 842.479 925.522 886.517 C 911.998 958.507 905.817 989.607 900.698 991.314 C 892.042 994.199 876.654 928.106 853.485 787.535 C 835.315 677.297 831.002 653.777 822.884 632.446 C 807.684 592.503 792.338 621.156 778.492 716.052 C 774.829 741.161 768.182 796.435 764.559 835.517 C 758.769 897.965 753.567 931.138 749.646 931.138 C 741.984 931.138 731.371 892.066 708.519 774 C 681.76 635.749 677.301 613.533 668.204 597.551 C 659.168 581.676 649.216 600.413 643.974 648.552 C 643.465 653.227 642.592 663.033 642.033 667.983 C 640.464 681.887 637.292 741.258 637.77 743.151 C 637.86 743.509 636.807 756.976 636.021 773.668 C 635.234 790.36 634.606 821.6 634.036 842.5 C 630.549 970.144 628.184 977.561 610.6 916 C 607.694 905.825 604.099 892.325 602.612 886 C 601.125 879.675 599.05 870.9 598.001 866.5 C 596.952 862.1 591.579 835.55 585.47 807.5 C 556.231 673.246 547.368 643.603 538.815 645.25 C 526.306 647.659 521.969 768.803 528.672 926 C 531.316 988.02 531.281 1037.812 527.377 1039.051 C 518.412 1041.896 507.487 1001.875 486.453 892.5 C 462.642 768.69 455.427 746.973 446.247 756.153 C 444.487 757.913 446.5 761.908 448.996 761.256 C 455.279 759.613 460.432 783.137 483.054 900.5 C 504.741 1013.013 518.316 1053.167 529.915 1045.567 C 534.591 1042.504 536.17 1010.371 533.869 945.965 C 527.3 762.054 531.059 649.323 542.636 656.478 C 548.49 660.096 561.215 714.289 589.523 846 C 602.415 905.986 615.391 948.925 622.013 956.014 C 631.879 966.575 634.36 951.135 636.957 863 C 638.188 821.246 639.263 804.704 640.624 774 C 641.197 761.075 641.802 746.9 641.968 742.5 C 644.234 682.586 652.214 615.81 658.696 604.712 C 666.901 590.664 673.645 614.193 704.055 773.303 C 744.985 987.454 755.211 995.242 771.957 817 C 783.44 694.779 799.75 615.301 811.128 625.577 C 821.219 634.69 827.968 665.275 847.981 787.5 C 875.795 957.37 890.783 1012.239 905.484 997.538 C 910.142 992.88 922.03 942.513 934.484 874.5 C 938.107 854.718 945.323 823.098 948.996 809.448 C 950.402 804.223 952.705 795.35 953.526 791.5 C 959.198 764.885 972.239 735.809 979 734.896 C 982.094 734.479 982.493 735.038 985.271 739.181 C 995.3 754.137 1004.566 799 1023.017 927.879 C 1045.764 1086.761 1058.138 1136.47 1075.131 1140.498 C 1077.722 1141.113 1085 1135.037 1085 1132.604 C 1085 1132.103 1088.315 1128.282 1090.006 1124.702 C 1092.883 1118.613 1094.2 1113.37 1099.08 1100 C 1100.976 1094.806 1109.722 1061.814 1115.1 1041 C 1118.953 1026.088 1127.253 1002 1132.159 989.964 C 1134.621 983.923 1140.134 969.711 1142.639 963.102 C 1152.877 936.095 1159.225 933.345 1169.76 933.345 C 1183.145 933.345 1187.87 955.833 1211.526 1110.535 C 1221.357 1174.82 1226.743 1203.048 1235.525 1247.448 C 1254.367 1342.699 1269.807 1376.713 1290.279 1357.188 C 1292.946 1354.645 1302.858 1334.061 1306.401 1323.983 C 1308.141 1319.033 1311.88 1314.631 1312.94 1312.431 C 1316.913 1304.187 1318.858 1292.292 1320.54 1286 C 1321.495 1282.425 1326.07 1272.942 1329.525 1265.517 C 1332.98 1258.092 1338.069 1247.002 1340.243 1242.052 C 1344.829 1231.611 1347.979 1227.181 1354.377 1218.388 C 1356.9 1214.92 1367.939 1203.462 1372.297 1201.307 C 1387.544 1193.767 1396.415 1208.61 1411.517 1265.483 C 1413.489 1272.908 1420.132 1298.727 1421.541 1305.327 C 1422.95 1311.927 1428.998 1333.309 1431.491 1344.793 C 1472.192 1532.291 1509.267 1625.239 1537.985 1620.387 C 1544.967 1619.207 1563.299 1590.741 1565.293 1587.624 C 1569.531 1580.999 1571.739 1571.82 1584.601 1541.983 C 1608.783 1485.886 1628.717 1462.116 1647.461 1457.411 C 1662.69 1453.589 1677.494 1490.867 1711.316 1582.224 C 1730.91 1635.151 1735.755 1645.528 1744.141 1666.642 C 1749.317 1679.674 1754.517 1689.657 1754.517 1690.005 C 1754.517 1691.126 1768.111 1720.281 1771.579 1727 C 1773.425 1730.575 1778.025 1744.37 1781.802 1752.345 C 1811.767 1815.61 1841.383 1839.128 1860.983 1818.341 C 1874.787 1803.701 1881.652 1786.58 1902.452 1721.483 C 1919.128 1669.291 1930.146 1637.115 1932.884 1634.983 C 1933.59 1634.433 1934.229 1631.848 1934.894 1629.83 C 1935.558 1627.811 1936.754 1625.619 1937.551 1624.958 C 1938.348 1624.296 1939.483 1622.794 1939.483 1621.619 C 1939.483 1615.938 1957.189 1597.272 1960.82 1598.665 C 1961.525 1598.935 1962.956 1598.049 1964.001 1597.285 C 1977.962 1587.076 2001.577 1615.804 2061.084 1722.086 C 2070.014 1738.036 2082.33 1758.839 2084.912 1762.414 C 2087.495 1765.989 2092.514 1774.154 2095.477 1779.379 C 2103.069 1792.77 2127.553 1828.585 2133.383 1835.356 C 2136.064 1838.47 2141.8 1847.645 2143.181 1849.845 C 2152.862 1865.272 2162.995 1886.663 2194.821 1901.818 C 2229.819 1918.483 2241.193 1893.544 2252.878 1833.465 C 2254.484 1825.207 2255.47 1815.432 2256.419 1813 C 2258.485 1807.707 2260.922 1785.703 2270.524 1730.5 C 2303.117 1543.123 2307.102 1569.466 2318.125 1554.554 C 2327.237 1542.227 2360.005 1561.536 2444.836 1652.248 C 2519.077 1731.635 2554.349 1757.343 2595.844 1767.978 C 2616.041 1773.155 2632.243 1763.768 2639.965 1749.145 C 2640.815 1747.535 2658.385 1711.35 2657.287 1679.55 C 2656.446 1655.214 2663.283 1630.333 2657.158 1466.351 C 2655.78 1429.446 2657.177 1391.084 2657.413 1397.851 C 2657.649 1404.618 2663.79 1356.666 2664.368 1337.346 C 2667.268 1240.4 2690.362 1215.356 2756.5 1243.948 C 2759.25 1245.137 2763.3 1246.852 2765.5 1247.76 C 2767.7 1248.667 2787.275 1258.345 2809 1269.265 C 2890.966 1310.465 2916.569 1319.708 2957.605 1322.908 C 2963.713 1323.385 2969.685 1324.296 2970.877 1324.934 C 2974.836 1327.053 2997.731 1322.187 3010.627 1316.486 C 3057.649 1295.697 3067.501 1210.279 3041.94 1045 C 3037.914 1018.968 3035.056 1000.062 3030.451 969 C 3029.025 959.375 3025.432 936.875 3022.468 919 C 3012.535 859.099 3009.194 836.554 3009.055 828.5 C 3008.98 824.1 3007.835 813.525 3006.512 805 C 2991.389 707.56 2989.749 621.339 3002.118 574 C 3017.859 513.756 3037.37 502.496 3170 477.112 C 3215.638 468.377 3236.484 462.823 3242.5 457.797 C 3244.15 456.418 3250.9 453.142 3257.5 450.517 C 3299.156 433.949 3329.094 410.387 3351.75 376.338 C 3354.088 372.825 3356 369.723 3356 369.445 C 3356 369.166 3357.758 365.837 3359.906 362.045 C 3369.91 344.391 3381.406 309.395 3377.5 308.484 C 3376.95 308.356 3373.699 308.805 3370.276 309.481" stroke="none" fill="#850da7" fill-rule="evenodd"/>
</svg>
