<svg width="48" height="48" viewBox="0 0 48 48" fill="none" xmlns="http://www.w3.org/2000/svg">
<path fill-rule="evenodd" clip-rule="evenodd" d="M18.7097 21.4551C19.7081 20.4554 19.7081 18.8349 18.7097 17.8352L15.9936 15.1204C14.9939 14.1207 13.3734 14.1207 12.3737 15.1204L10.8838 16.609C9.59228 17.9005 9.39132 19.9165 10.4 21.4397C14.7276 27.9831 20.4979 33.7533 27.04 38.0797C28.5593 39.0858 30.5804 38.8848 31.8707 37.5946L33.3593 36.106C34.3616 35.1063 34.3616 33.4845 33.3593 32.4861L30.6457 29.7712C29.6448 28.7716 28.0243 28.7716 27.0246 29.7712L26.1196 30.6762C23.1411 28.2352 20.2444 25.3373 17.8048 22.36L18.7097 21.4551Z" stroke="#FFE900" stroke-width="1.75" stroke-linecap="round" stroke-linejoin="round"/>
<path fill-rule="evenodd" clip-rule="evenodd" d="M32.7997 17.6V15.68C23.8397 15.68 23.9229 22.4858 23.9229 22.4858C23.9229 22.4858 22.5597 11.2 32.7997 11.2V9.28003L38.3229 13.3658L32.7997 17.6Z" stroke="#FFE900" stroke-width="1.75" stroke-linejoin="round"/>
</svg>
