<svg width="48" height="48" viewBox="0 0 48 48" fill="none" xmlns="http://www.w3.org/2000/svg">
<path fill-rule="evenodd" clip-rule="evenodd" d="M16.825 18.4574C18.1569 18.4566 19.2379 17.3756 19.2386 16.0437V12.4222C19.2386 11.0896 18.1576 10.0086 16.8243 10.0079L14.8394 10.0093C13.1157 10.0093 11.6392 11.2187 11.2946 12.9063C9.81807 20.1515 9.81807 27.8477 11.2938 35.0937C11.6377 36.779 13.1201 37.9928 14.8386 37.9921L16.8243 37.9913C18.1576 37.9921 19.2386 36.9111 19.2371 35.5784V31.9584C19.2394 30.625 18.1584 29.544 16.8235 29.5448L15.6171 29.544C15.2585 25.9328 15.2592 22.0686 15.6186 18.4566L16.825 18.4574Z" stroke="#FFE900" stroke-width="1.75" stroke-linecap="round" stroke-linejoin="round"/>
<path d="M20.4 24.2057H32.5029" stroke="#FFE900" stroke-width="1.75" stroke-linejoin="round"/>
<path d="M31.8172 12.3428H27.7029V35.6571H31.8172" stroke="#FFE900" stroke-width="1.75" stroke-linejoin="round"/>
<path fill-rule="evenodd" clip-rule="evenodd" d="M31.8171 15.0857H37.3029V9.59998H31.8171V15.0857Z" stroke="#FFE900" stroke-width="1.75" stroke-linejoin="round"/>
<path fill-rule="evenodd" clip-rule="evenodd" d="M31.8171 26.9486H37.3029V21.4629H31.8171V26.9486Z" stroke="#FFE900" stroke-width="1.75" stroke-linejoin="round"/>
<path fill-rule="evenodd" clip-rule="evenodd" d="M31.8171 38.4H37.3029V32.9143H31.8171V38.4Z" stroke="#FFE900" stroke-width="1.75" stroke-linejoin="round"/>
</svg>
