<svg width="48" height="48" viewBox="0 0 48 48" fill="none" xmlns="http://www.w3.org/2000/svg">
<path d="M30.8973 17.7801L30.8973 9.02897C30.8973 7.37806 29.5631 5.99998 27.9102 5.99998C27.9102 5.99998 17.304 5.99998 12.0009 5.99998C11.3297 5.99998 9.98718 5.99998 9.98718 5.99998C8.33826 5.99998 7.00001 7.37806 7.00001 9.02897C7.00001 9.02897 7.00001 11.6524 7.00001 12.9641C7.00001 15.6213 7.00001 20.9358 7.00001 20.9358C7.00001 22.5867 8.33826 23.923 9.98718 23.923L23.6822 23.923" stroke="#FFE900" stroke-width="1.75" stroke-linecap="round" stroke-linejoin="round"/>
<path d="M7 17.9487H30.8973" stroke="#FFE900" stroke-width="1.75" stroke-linecap="round" stroke-linejoin="round"/>
<path d="M13.97 27.9059H23.9273" stroke="#FFE900" stroke-width="1.75" stroke-linecap="round" stroke-linejoin="round"/>
<path d="M18.9487 23.923V27.9059" stroke="#FFE900" stroke-width="1.75" stroke-linecap="round" stroke-linejoin="round"/>
<path fill-rule="evenodd" clip-rule="evenodd" d="M27.351 23.0856C27.351 22.1695 28.0928 21.426 29.0105 21.426H38.9678C39.8855 21.426 40.6273 22.1695 40.6273 23.0856V41.3405C40.6273 42.2565 39.8855 43 38.9678 43H29.0105C28.0928 43 27.351 42.2565 27.351 41.3405V23.0856Z" stroke="#FFE900" stroke-width="1.75" stroke-linecap="round" stroke-linejoin="round"/>
<path d="M27.351 38.0214H40.6273" stroke="#FFE900" stroke-width="1.75" stroke-linecap="round" stroke-linejoin="round"/>
<path fill-rule="evenodd" clip-rule="evenodd" d="M33.9892 39.6809C33.5312 39.6809 33.1594 40.0526 33.1594 40.5107C33.1594 40.9687 33.5312 41.3404 33.9892 41.3404C34.4472 41.3404 34.819 40.9687 34.819 40.5107C34.819 40.0526 34.4472 39.6809 33.9892 39.6809" fill="#FFE900"/>
<path d="M33.9892 39.6809C33.5312 39.6809 33.1594 40.0526 33.1594 40.5107C33.1594 40.9687 33.5312 41.3404 33.9892 41.3404C34.4472 41.3404 34.819 40.9687 34.819 40.5107C34.819 40.0526 34.4472 39.6809 33.9892 39.6809" stroke="#FFE900" stroke-width="1.75"/>
</svg>
