<svg width="48" height="48" viewBox="0 0 48 48" fill="none" xmlns="http://www.w3.org/2000/svg">
<path fill-rule="evenodd" clip-rule="evenodd" d="M18.5373 18.2115C19.6738 17.0736 19.6738 15.2275 18.5373 14.0896L15.4456 10.9993C14.3091 9.86286 12.4617 9.86286 11.3252 10.9993L9.62925 12.6953C8.15914 14.1654 7.93184 16.4602 9.0785 18.194C14.0032 25.6407 20.5713 32.2089 28.0195 37.135C29.7504 38.2787 32.051 38.0514 33.5168 36.5828L35.2142 34.8868C36.3521 33.7504 36.3521 31.9044 35.2142 30.7664L32.1224 27.6761C30.9845 26.5382 29.1399 26.5382 28.002 27.6761L26.9719 28.7062C23.5829 25.9292 20.2828 22.6305 17.5072 19.2416L18.5373 18.2115Z" stroke="#FFE900" stroke-width="1.75" stroke-linecap="round" stroke-linejoin="round"/>
<path fill-rule="evenodd" clip-rule="evenodd" d="M29.76 15.6C29.76 16.5281 29.0081 17.28 28.08 17.28C27.152 17.28 26.4 16.5281 26.4 15.6C26.4 14.672 27.152 13.92 28.08 13.92C29.0081 13.92 29.76 14.672 29.76 15.6Z" stroke="#FFE900" stroke-width="1.75" stroke-linecap="round" stroke-linejoin="round"/>
<path fill-rule="evenodd" clip-rule="evenodd" d="M36 15.6C36 16.5281 35.248 17.28 34.32 17.28C33.392 17.28 32.64 16.5281 32.64 15.6C32.64 14.672 33.392 13.92 34.32 13.92C35.248 13.92 36 14.672 36 15.6Z" stroke="#FFE900" stroke-width="1.75" stroke-linecap="round" stroke-linejoin="round"/>
<path d="M34.08 17.28H28.8" stroke="#FFE900" stroke-width="1.75" stroke-linecap="round" stroke-linejoin="round"/>
</svg>
