<svg xmlns="http://www.w3.org/2000/svg" fill-rule="evenodd" clip-rule="evenodd" image-rendering="optimizeQuality" preserveAspectRatio="none" shape-rendering="geometricPrecision" text-rendering="geometricPrecision" viewBox="0 0 500 463">
  <path fill="#fefefe" d="M426.5 2.5c9.451-.576 70.078 216.214 71 217 1.023-4.019 3.26 12.012 0 24-.421.814-55.311 189.784-77 217-5.033 7.151-262 0-393 0-8.108.245-28.987-9.045-28-26 6.263-47.832 37.819-184.156 41-203-6.592-34.464-46.809-208.663-41-211C6.596 4.802 15.189 3.37 19.5 3c135.666-.5 402.526-5.068 407-.5"></path>
  <path fill="#82f992" d="M10.5 82.5q2.634 1.578 2 5-2.57-1.703-2-5" opacity=".043"></path>
  <path fill="#86f19c" d="M20.5 128.5q-1.76-1.52-2-4 1.083-.627 1.5-2 .743 2.96.5 6" opacity=".039"></path>
  <path fill="#32d852" d="M497.5 243.5q.297 7.875-2 15a45 45 0 0 1 1-10q-.426-2.872 1-5" opacity=".063"></path>
  <path fill="#86ff82" d="M27.5 302.5q.406 2.82-2 4-.405-2.82 2-4" opacity=".02"></path>
</svg>
