<svg width="120" height="120" viewBox="0 0 120 120" fill="none" xmlns="http://www.w3.org/2000/svg">
<g clip-path="url(#clip0_4889_32986)">
<rect width="120" height="120" fill="white"/>
<rect width="120" height="120" fill="white"/>
<path d="M53.3726 65.9629C36.8322 57.1868 16.44 58.2178 7.82541 68.2657C-0.789166 78.3136 5.63601 93.5736 22.1764 102.35C38.7169 111.126 63.5705 121.489 72.1851 111.441C80.7997 101.393 69.913 74.7391 53.3726 65.9629Z" fill="#FFE600"/>
<path fill-rule="evenodd" clip-rule="evenodd" d="M93.6746 37.2057L93.153 37.3419C91.7185 37.6824 89.9581 37.8186 88.0673 37.9548C85.7853 38.1591 83.5032 38.3634 81.6776 38.9083C80.7648 40.2704 80.0476 41.9049 79.3955 43.4713C78.4175 45.6507 77.4395 47.8982 75.8747 49.6689L75.6139 49.9413L75.2227 49.8732C74.1143 49.5327 73.3971 48.9878 73.071 48.1706C72.4842 46.5361 73.7883 44.561 75.0271 42.6541C75.6139 41.7006 76.2659 40.7471 76.5267 39.9299H75.9399C72.8754 39.9299 71.8322 41.8368 70.463 44.561C70.2674 44.9015 70.0718 45.2421 69.8762 45.6507C69.6154 46.0593 69.3546 46.5361 69.0938 47.0809C68.1158 48.8516 67.2682 50.5543 65.8989 50.5543C65.1165 50.5543 64.4645 50.0094 63.8125 48.9197L63.6821 48.6473L63.8125 48.3068C64.2689 47.149 64.8557 46.1955 65.4425 45.3102C65.9641 44.4929 66.4857 43.6756 66.877 42.7903C66.8118 42.8584 66.8118 42.8584 66.7466 42.8584C65.8989 43.1308 65.0513 43.4032 64.2037 43.4032C63.2909 43.4032 62.1173 42.9946 61.7913 41.0876L61.7261 40.679L62.0521 40.4066C63.2909 39.4531 64.9861 38.9764 66.6162 38.4997C67.7246 38.1591 68.8982 37.8186 69.8762 37.3419C70.6586 36.1841 71.3106 34.9582 72.0278 33.6642C72.0278 33.5961 72.093 33.528 72.093 33.4599C71.441 33.6642 70.7238 33.8685 70.0718 33.8685C69.3546 33.8685 68.833 33.6642 68.4418 33.1874C67.9854 32.7107 67.7898 32.0297 67.855 31.0762L67.9202 30.5995L68.3114 30.4632C70.5282 29.7141 72.6798 28.9649 74.7663 28.0796C75.8747 26.6494 76.7875 25.0148 77.6351 23.4484C78.6131 21.7458 79.5912 19.975 80.7648 18.4086L81.0908 18L81.482 18.1362C82.6556 18.5448 83.3076 19.1578 83.5684 19.975C83.9596 21.4734 82.786 23.0398 81.6124 24.6062C81.0908 25.2873 80.6344 25.9683 80.3084 26.5812C81.6124 26.445 83.3728 25.9002 84.4812 25.4235C84.8724 25.0148 85.3288 23.9933 85.8504 23.0398C86.8937 20.9966 87.9369 18.8173 89.4365 18.8173C90.2189 18.8173 90.8709 19.3621 91.4577 20.5199L91.5881 20.7923L91.4577 21.0647C91.0013 22.2906 90.5449 23.3803 89.8929 24.3338C90.1537 24.2657 90.3493 24.1976 90.6101 24.1295C91.3273 23.9251 92.0445 23.7208 92.827 23.6527H93.0226L93.2182 23.7889C94.0006 24.47 94.9134 25.2873 94.6526 26.2407C94.3266 27.4666 92.7618 27.739 90.6753 28.0115C89.6321 28.2158 88.5237 28.352 87.8065 28.6925C86.5677 29.2373 85.9156 30.7357 85.1984 32.3702C84.8724 33.1193 84.5464 33.8685 84.1552 34.5496C85.0028 34.4814 85.9808 34.2771 86.8937 34.1409C88.1325 33.8685 89.3713 33.5961 90.4145 33.5961C91.3273 33.5961 92.0445 33.8004 92.6314 34.209C93.2834 34.7539 93.6094 35.5711 93.6746 36.5927V37.2057ZM81.7428 30.1227C81.0256 30.2589 80.3736 30.4632 79.7216 30.6676C79.1999 30.8038 78.5479 31.0081 77.9611 31.1443C77.3091 32.1659 76.7223 33.3237 76.1355 34.3452C75.8747 34.9582 75.5487 35.503 75.2227 36.116C75.6791 36.0479 76.2007 35.9117 76.7223 35.7754C77.3743 35.6392 78.0915 35.503 78.7435 35.4349C79.1999 34.5496 79.6564 33.7323 80.1128 32.9831C80.6996 32.0297 81.2864 31.0762 81.7428 30.1227Z" fill="black"/>
<path fill-rule="evenodd" clip-rule="evenodd" d="M101.048 68.2667C103.49 66.4687 104.385 62.8858 103.017 60.3305C101.638 57.99 98.7219 57.2833 96.3494 58.9222L85.8336 66.356L85.7697 66.4012L85.702 66.4405L85.1572 66.7573C84.8088 66.9598 84.4544 67.1477 84.0895 67.3111C85.3 69.2124 85.7112 71.6529 85.0294 74.0545C83.8345 78.264 79.6987 80.875 75.612 79.9997L52.3962 73.606L53.4498 70.1456L76.4232 76.4533C78.7038 76.9417 81.0119 75.4846 81.6788 73.1353C82.353 70.7605 81.1121 68.3174 78.868 67.6013L52.6213 59.2263L49.3438 58.0188L49.6778 58.0769L49.4144 57.9921C48.2073 57.7423 46.9376 57.9325 45.8811 58.7105L45.8606 58.7256L45.8398 58.74L27.7301 71.2867L26.1273 72.3971L25.1951 70.6958L24.7683 69.917C24.257 69.026 23.2364 68.7166 22.1975 69.3789L18.4941 71.8851C17.3875 72.7851 17.1518 74.2821 17.7156 75.2761L17.7236 75.2901L17.7313 75.3044L29.2694 96.5609C29.7811 97.45 30.8008 97.7583 31.8387 97.0966L35.5749 94.5682C36.5809 93.8302 36.9754 92.4036 36.4522 91.2488L35.8558 89.9327L37.0439 89.0974L41.6394 85.8664C43.5614 84.4583 45.9565 83.9423 48.3321 84.6477L73.2148 87.6073L73.3022 87.6177L73.3882 87.6368C74.5129 87.8868 75.8761 87.6393 77.0292 86.7967L101.016 68.2905L101.032 68.2784L101.048 68.2667ZM74.52 62.4002L50.4216 54.6395L50.3442 54.6145L50.2648 54.5969C48.213 54.1409 45.8454 54.4117 43.828 55.8866L27.2542 67.3692C25.5622 65.348 22.6717 64.9169 20.2866 66.4572L20.2706 66.4675L20.2549 66.4781L16.4769 69.0348L16.4259 69.0693L16.3775 69.1073C13.9647 70.9983 13.1871 74.3859 14.6537 76.9904L26.1937 98.2505L26.2015 98.2648L26.2095 98.2788C27.747 100.99 31.0678 101.75 33.7497 100.018L33.7657 100.008L33.7814 99.9973L37.5593 97.4406L37.5806 97.4262L37.6014 97.4112C39.5547 96.0048 40.5136 93.5536 40.0915 91.2224L43.6665 88.709L43.6823 88.6978L43.6978 88.6864C44.8269 87.855 46.1299 87.6133 47.414 88.0269L47.5755 88.0789L47.7442 88.099L72.7036 91.0677C74.8384 91.5132 77.2024 91.0049 79.1188 89.5938L79.1348 89.582L79.1504 89.57L103.139 71.0622C106.878 68.2962 108.364 62.8306 106.089 58.6356L106.077 58.6124L106.063 58.5896C103.676 54.4891 98.4358 53.2295 94.3508 56.0596L94.344 56.0644L94.3371 56.0692L83.878 63.463L83.4009 63.7403C82.7056 64.1445 82.2107 64.336 81.7749 64.4063C81.4206 64.4635 81.0176 64.4546 80.4781 64.3114C80.3194 64.2487 80.1576 64.1909 79.9928 64.1383L74.7268 62.4362L74.52 62.4002Z" fill="black"/>
</g>
<defs>
<clipPath id="clip0_4889_32986">
<rect width="120" height="120" fill="white"/>
</clipPath>
</defs>
</svg>
